<svg width="491" height="491" viewBox="0 0 491 491" fill="none" xmlns="http://www.w3.org/2000/svg">
<path d="M245.5 491C381.086 491 491 381.086 491 245.5C491 109.914 381.086 0 245.5 0C109.914 0 0 109.914 0 245.5C0 381.086 109.914 491 245.5 491Z" fill="#1C8ADB"/>
<path opacity="0.42" d="M283.167 487.5L431.665 333.597L408.471 323.85L431.665 300.655L408.471 290.908L431.665 267.714L408.471 257.966L431.665 234.771L408.471 225.025L431.665 201.831L408.471 192.084L431.665 168.889L405.115 157.732L373.569 189.279V147.587L350.079 124.097H308.384L339.931 92.55L328.774 66L305.579 89.195L295.834 66.001L272.639 89.195L262.891 66.001L239.696 89.195L229.949 66.001L206.756 89.195L197.009 66.001L173.814 89.195L164.067 66.001L0.999936 226.5C-8.5 343 80.4999 509 283.167 487.5Z" fill="url(#paint0_linear_703_57)"/>
<path d="M145.778 114.58L120.578 139.78V350.22L145.778 375.42H356.218L381.418 350.22V139.78L356.218 114.58H145.778ZM372.568 343.08L349.078 366.57H152.918L129.428 343.08V146.92L152.918 123.43H349.078L372.568 146.92V343.08Z" fill="white"/>
<path d="M157.36 130.5L135.21 152.65V337.64L157.36 359.79H342.35L364.5 337.64V152.65L342.35 130.5H157.36ZM157.36 163.442H183.91V174.599H157.36V163.442ZM157.36 196.382H183.91V207.54H157.36V196.382ZM157.36 229.324H183.91V240.481H157.36V229.324ZM157.36 262.266H183.91V273.423H157.36V262.266ZM157.36 295.207H183.91V306.364H157.36V295.207ZM403.29 157.357H429.84V168.514H403.29V157.357ZM403.29 190.299H429.84V201.456H403.29V190.299ZM403.29 223.239H429.84V234.397H403.29V223.239ZM403.29 256.181H429.84V267.338H403.29V256.181ZM403.29 289.123H429.84V300.28H403.29V289.123ZM403.29 322.064H429.84V333.221H403.29V322.064ZM162.24 398.406H173.397V424.956H162.24V398.406ZM195.182 398.406H206.339V424.956H195.182V398.406ZM228.122 398.406H239.28V424.956H228.122V398.406ZM261.064 398.406H272.221V424.956H261.062L261.064 398.406ZM294.006 398.406H305.163V424.956H294.007L294.006 398.406ZM326.947 398.406H338.104V424.956H326.947V398.406ZM162.237 65.626H173.394V92.176H162.237V65.626ZM195.179 65.626H206.336V92.176H195.179V65.626ZM228.119 65.626H239.277V92.176H228.119V65.626ZM261.061 65.626H272.218V92.176H261.059L261.061 65.626ZM294.003 65.626H305.16V92.176H294.004L294.003 65.626ZM326.944 65.626H338.101V92.176H326.944V65.626Z" fill="white"/>
<path d="M89.05 157.357H62.5V168.514H89.05V157.357Z" fill="white"/>
<path d="M89.05 190.299H62.5V201.456H89.05V190.299Z" fill="white"/>
<path d="M89.05 223.239H62.5V234.397H89.05V223.239Z" fill="white"/>
<path d="M89.05 256.181H62.5V267.338H89.05V256.181Z" fill="white"/>
<path d="M89.05 289.123H62.5V300.28H89.05V289.123Z" fill="white"/>
<path d="M89.05 322.064H62.5V333.221H89.05V322.064Z" fill="white"/>
<path d="M218 152.65L144.085 152.285L150.5 342H218V152.65Z" fill="white"/>
<g clip-path="url(#clip0_703_57)">
<path fill-rule="evenodd" clip-rule="evenodd" d="M275.41 288.637H276.163V280.988H280.243V280.271H270.577V288.544C270.577 288.544 270.377 289.355 270.781 290.054C271.184 290.752 271.306 291.044 271.975 291.368C272.644 291.692 272.894 291.745 273.667 291.745C274.44 291.745 278.234 291.745 278.234 291.745C278.234 291.745 278.871 291.743 279.279 291.587C279.688 291.432 279.976 291.264 280.211 291.021C280.446 290.778 280.619 290.441 280.619 290.441C280.619 290.441 280.915 290.815 281.121 291.021C281.327 291.227 281.663 291.437 281.927 291.577C282.191 291.717 282.857 291.773 283.174 291.773C283.492 291.773 288.13 291.773 288.13 291.773C288.13 291.773 288.992 291.82 289.843 291.339C290.694 290.858 290.869 290.116 290.953 289.615C291.037 289.115 291.037 289.04 291.037 288.883C291.037 288.725 291.037 288.109 291.037 288.109L289.628 286.591L286.301 283.006L285.736 283.481L290.284 288.381C290.284 288.381 290.253 289.261 290.192 289.554C290.13 289.847 289.892 290.342 289.552 290.559C289.212 290.775 288.878 291 288.169 291.014C287.46 291.028 283.004 291.028 283.004 291.028C283.004 291.028 282.235 290.938 281.909 290.675C281.584 290.411 281.345 290.213 281.208 289.847C281.072 289.481 281.02 289.073 281.02 289.073H280.242C280.242 289.073 280.089 289.847 279.872 290.157C279.655 290.467 279.154 290.877 278.618 290.955C278.082 291.033 275.721 291.028 275.721 291.028H273.458C273.458 291.028 272.492 290.961 272.124 290.598C271.756 290.235 271.511 289.973 271.407 289.481C271.304 288.989 271.33 287.961 271.33 287.961V282.912V280.988H275.41V288.637V288.637ZM263.996 308.464C263.996 308.669 263.94 308.872 263.831 309.072C263.721 309.272 263.566 309.441 263.369 309.581C263.152 309.731 262.899 309.848 262.611 309.934C262.321 310.018 261.972 310.061 261.565 310.061C261.129 310.061 260.736 310.025 260.387 309.955C260.038 309.884 259.683 309.78 259.322 309.64V308.764H259.379C259.686 308.986 260.039 309.156 260.441 309.277C260.843 309.396 261.22 309.456 261.574 309.456C262.073 309.456 262.462 309.375 262.74 309.213C263.017 309.05 263.156 308.834 263.156 308.563C263.156 308.33 263.091 308.158 262.959 308.047C262.827 307.936 262.627 307.851 262.359 307.789C262.155 307.742 261.935 307.703 261.697 307.673C261.46 307.642 261.208 307.603 260.941 307.556C260.405 307.457 260.006 307.289 259.747 307.05C259.487 306.81 259.358 306.499 259.358 306.116C259.358 305.675 259.572 305.314 260.002 305.033C260.43 304.752 260.975 304.611 261.634 304.611C262.06 304.611 262.45 304.646 262.806 304.717C263.162 304.787 263.478 304.875 263.751 304.978V305.804H263.694C263.464 305.634 263.161 305.495 262.784 305.382C262.409 305.27 262.024 305.215 261.631 305.215C261.2 305.215 260.852 305.292 260.591 305.447C260.328 305.603 260.198 305.803 260.198 306.048C260.198 306.267 260.263 306.438 260.394 306.564C260.523 306.688 260.752 306.785 261.081 306.849C261.255 306.883 261.501 306.923 261.822 306.97C262.142 307.017 262.413 307.066 262.637 307.115C263.087 307.218 263.426 307.376 263.654 307.585C263.882 307.794 263.996 308.087 263.996 308.464V308.464ZM255.817 305.31C256.064 305.545 256.253 305.833 256.385 306.175C256.517 306.517 256.583 306.904 256.583 307.337C256.583 307.771 256.516 308.159 256.381 308.501C256.246 308.844 256.059 309.13 255.817 309.358C255.567 309.596 255.272 309.775 254.931 309.895C254.591 310.014 254.202 310.075 253.765 310.075C253.339 310.075 252.951 310.013 252.602 309.892C252.253 309.769 251.957 309.591 251.713 309.358C251.468 309.125 251.28 308.839 251.149 308.499C251.017 308.16 250.951 307.773 250.951 307.337C250.951 306.909 251.017 306.524 251.147 306.184C251.276 305.844 251.467 305.552 251.717 305.31C251.956 305.079 252.252 304.902 252.606 304.779C252.961 304.658 253.347 304.596 253.765 304.596C254.199 304.596 254.59 304.658 254.936 304.782C255.281 304.905 255.575 305.081 255.817 305.31V305.31ZM255.743 307.337C255.743 306.654 255.567 306.127 255.214 305.756C254.86 305.386 254.38 305.2 253.768 305.2C253.152 305.2 252.669 305.386 252.317 305.756C251.966 306.127 251.791 306.654 251.791 307.337C251.791 308.027 251.97 308.556 252.328 308.921C252.686 309.287 253.166 309.471 253.768 309.471C254.371 309.471 254.851 309.287 255.208 308.921C255.565 308.556 255.743 308.027 255.743 307.337V307.337ZM248.844 309.965H245.008V304.706H245.814V309.343H248.844V309.965V309.965ZM242.496 309.965H241.45L239.42 307.875H238.287V309.965H237.481V304.706H239.179C239.544 304.706 239.85 304.726 240.095 304.768C240.338 304.808 240.559 304.882 240.754 304.988C240.973 305.109 241.145 305.259 241.269 305.443C241.393 305.625 241.454 305.856 241.454 306.137C241.454 306.515 241.344 306.833 241.125 307.088C240.905 307.344 240.602 307.537 240.217 307.666L242.496 309.965ZM240.612 306.186C240.612 306.036 240.581 305.902 240.52 305.785C240.459 305.668 240.357 305.57 240.217 305.49C240.101 305.422 239.961 305.374 239.802 305.347C239.642 305.32 239.453 305.307 239.236 305.307H238.287V307.292H239.101C239.357 307.292 239.579 307.273 239.77 307.234C239.959 307.194 240.12 307.122 240.253 307.016C240.376 306.917 240.466 306.804 240.524 306.676C240.583 306.547 240.612 306.384 240.612 306.186V306.186ZM234.832 309.965H233.974L233.381 308.499H230.754L230.161 309.965H229.342L231.549 304.706H232.625L234.832 309.965ZM233.128 307.899L232.067 305.318L231.001 307.899H233.128ZM227.182 309.584C227.033 309.64 226.897 309.693 226.777 309.742C226.657 309.791 226.498 309.843 226.302 309.898C226.137 309.942 225.958 309.981 225.763 310.012C225.568 310.045 225.356 310.061 225.122 310.061C224.681 310.061 224.283 310.008 223.923 309.9C223.563 309.793 223.25 309.625 222.985 309.396C222.723 309.173 222.52 308.889 222.373 308.544C222.227 308.199 222.153 307.798 222.153 307.34C222.153 306.907 222.225 306.52 222.365 306.179C222.507 305.837 222.71 305.549 222.976 305.314C223.233 305.086 223.545 304.911 223.91 304.79C224.276 304.671 224.68 304.611 225.126 304.611C225.452 304.611 225.777 304.644 226.101 304.713C226.426 304.782 226.786 304.901 227.182 305.074V305.903H227.121C226.787 305.661 226.456 305.484 226.127 305.374C225.799 305.263 225.447 305.208 225.073 305.208C224.766 305.208 224.49 305.251 224.245 305.336C223.999 305.422 223.779 305.556 223.588 305.737C223.4 305.914 223.254 306.137 223.15 306.407C223.046 306.676 222.993 306.987 222.993 307.34C222.993 307.711 223.05 308.029 223.165 308.294C223.281 308.56 223.429 308.778 223.611 308.944C223.802 309.119 224.024 309.248 224.277 309.331C224.532 309.414 224.8 309.456 225.082 309.456C225.47 309.456 225.834 309.398 226.173 309.282C226.512 309.168 226.828 308.995 227.125 308.764H227.182V309.584V309.584ZM215.18 305.31C215.427 305.545 215.616 305.833 215.748 306.175C215.88 306.517 215.945 306.904 215.945 307.337C215.945 307.771 215.879 308.159 215.744 308.501C215.609 308.844 215.421 309.13 215.18 309.358C214.929 309.596 214.635 309.775 214.294 309.895C213.954 310.014 213.565 310.075 213.128 310.075C212.702 310.075 212.314 310.013 211.965 309.892C211.616 309.769 211.32 309.591 211.075 309.358C210.831 309.125 210.644 308.839 210.511 308.499C210.379 308.16 210.314 307.773 210.314 307.337C210.314 306.909 210.379 306.524 210.51 306.184C210.639 305.844 210.83 305.552 211.08 305.31C211.319 305.079 211.615 304.902 211.969 304.779C212.324 304.658 212.71 304.596 213.128 304.596C213.562 304.596 213.952 304.658 214.298 304.782C214.645 304.905 214.938 305.081 215.18 305.31V305.31ZM215.106 307.337C215.106 306.654 214.929 306.127 214.576 305.756C214.224 305.386 213.743 305.2 213.131 305.2C212.516 305.2 212.032 305.386 211.68 305.756C211.328 306.127 211.153 306.654 211.153 307.337C211.153 308.027 211.333 308.556 211.691 308.921C212.048 309.287 212.529 309.471 213.131 309.471C213.734 309.471 214.214 309.287 214.571 308.921C214.928 308.556 215.106 308.027 215.106 307.337V307.337ZM208.011 309.965H207.153L206.56 308.499H203.933L203.339 309.965H202.521L204.728 304.706H205.804L208.011 309.965V309.965ZM206.307 307.899L205.246 305.318L204.18 307.899H206.307ZM206.97 302.927C206.941 303.286 206.835 303.556 206.656 303.737C206.476 303.919 206.237 304.009 205.936 304.009C205.788 304.009 205.654 303.986 205.528 303.94C205.404 303.895 205.285 303.827 205.174 303.74C205.046 303.639 204.938 303.563 204.85 303.513C204.762 303.461 204.665 303.436 204.559 303.436C204.418 303.436 204.313 303.489 204.242 303.596C204.171 303.702 204.13 303.844 204.12 304.023H203.586C203.608 303.668 203.715 303.399 203.907 303.218C204.1 303.036 204.336 302.946 204.616 302.946C204.752 302.946 204.882 302.969 205.009 303.014C205.135 303.06 205.255 303.125 205.369 303.211C205.496 303.307 205.61 303.379 205.709 303.428C205.808 303.476 205.902 303.5 205.993 303.5C206.131 303.5 206.239 303.446 206.317 303.338C206.393 303.229 206.436 303.093 206.444 302.927H206.97V302.927ZM200.205 308.464C200.205 308.669 200.15 308.872 200.04 309.072C199.93 309.272 199.776 309.441 199.579 309.581C199.362 309.731 199.109 309.848 198.82 309.934C198.531 310.018 198.182 310.061 197.775 310.061C197.338 310.061 196.945 310.025 196.596 309.955C196.247 309.884 195.893 309.78 195.531 309.64V308.764H195.588C195.896 308.986 196.249 309.156 196.65 309.277C197.052 309.396 197.43 309.456 197.783 309.456C198.282 309.456 198.671 309.375 198.949 309.213C199.227 309.05 199.366 308.834 199.366 308.563C199.366 308.33 199.301 308.158 199.168 308.047C199.037 307.936 198.836 307.851 198.568 307.789C198.364 307.742 198.144 307.703 197.906 307.673C197.669 307.642 197.418 307.603 197.15 307.556C196.614 307.457 196.215 307.289 195.957 307.05C195.697 306.81 195.568 306.499 195.568 306.116C195.568 305.675 195.782 305.314 196.211 305.033C196.639 304.752 197.184 304.611 197.844 304.611C198.269 304.611 198.66 304.646 199.016 304.717C199.371 304.787 199.687 304.875 199.961 304.978V305.804H199.904C199.673 305.634 199.37 305.495 198.994 305.382C198.618 305.27 198.233 305.215 197.84 305.215C197.409 305.215 197.062 305.292 196.8 305.447C196.538 305.603 196.407 305.803 196.407 306.048C196.407 306.267 196.473 306.438 196.603 306.564C196.732 306.688 196.962 306.785 197.291 306.849C197.465 306.883 197.711 306.923 198.032 306.97C198.352 307.017 198.622 307.066 198.846 307.115C199.297 307.218 199.636 307.376 199.864 307.585C200.091 307.794 200.205 308.087 200.205 308.464V308.464ZM269.689 284.528L266.81 287.277C264.849 285.21 262.647 284.177 260.199 284.177C258.128 284.177 256.387 284.884 254.972 286.294C253.558 287.703 252.851 289.444 252.851 291.51C252.851 292.95 253.162 294.229 253.789 295.342C254.415 296.461 255.304 297.339 256.447 297.976C257.596 298.613 258.87 298.929 260.269 298.929C261.463 298.929 262.557 298.708 263.55 298.262C264.513 297.827 265.785 297.049 266.933 295.919C266.279 296.894 265.805 298.76 265.75 299.869C265.696 300.977 265.754 301.143 265.846 301.72C265.659 301.814 265.259 301.901 265.075 301.979C263.655 302.581 262.035 302.882 260.209 302.882C256.853 302.882 254.1 301.818 251.958 299.686C249.821 297.555 248.748 294.826 248.748 291.496C248.748 289.339 249.234 287.422 250.212 285.747C251.185 284.072 252.58 282.728 254.401 281.709C256.216 280.691 258.173 280.179 260.269 280.179C262.055 280.179 263.77 280.555 265.421 281.313C267.071 282.066 268.495 283.139 269.689 284.528V284.528ZM195.021 280.721H199.105V302.34H195.021V280.721ZM222.115 284.528L219.235 287.277C217.274 285.21 215.072 284.177 212.624 284.177C210.553 284.177 208.812 284.884 207.397 286.294C205.983 287.703 205.276 289.444 205.276 291.51C205.276 292.95 205.587 294.229 206.214 295.342C206.841 296.461 207.729 297.339 208.872 297.976C210.021 298.613 211.295 298.929 212.694 298.929C213.888 298.929 214.982 298.708 215.975 298.262C216.963 297.816 218.051 297.008 219.235 295.829L222.029 298.738C220.429 300.298 218.919 301.377 217.5 301.979C216.08 302.581 214.46 302.882 212.634 302.882C209.278 302.882 206.525 301.818 204.383 299.686C202.246 297.555 201.173 294.826 201.173 291.496C201.173 289.339 201.659 287.422 202.637 285.747C203.611 284.072 205.005 282.728 206.826 281.709C208.641 280.691 210.598 280.179 212.694 280.179C214.48 280.179 216.195 280.555 217.846 281.313C219.496 282.066 220.92 283.139 222.115 284.528ZM295.802 282.901H295.049V291.049H290.969V291.766H295.956L295.871 287.975L300.635 287.938V283.493C300.635 283.493 300.835 282.682 300.432 281.983C300.028 281.284 299.907 280.993 299.237 280.669C298.568 280.345 298.318 280.292 297.545 280.292C296.772 280.292 292.979 280.292 292.979 280.292C292.979 280.292 292.342 280.294 291.933 280.449C291.525 280.605 291.236 280.773 291.001 281.016C290.767 281.259 290.593 281.596 290.593 281.596C290.593 281.596 290.297 281.223 290.091 281.016C289.885 280.81 289.549 280.6 289.285 280.46C289.021 280.321 288.355 280.264 288.038 280.264C287.721 280.264 283.082 280.264 283.082 280.264C283.082 280.264 282.22 280.217 281.369 280.697C280.518 281.178 280.343 281.921 280.259 282.422C280.175 282.922 280.175 282.996 280.175 283.154C280.175 283.312 280.175 283.928 280.175 283.928L281.585 285.447L284.912 289.031L285.476 288.556L280.928 283.656C280.928 283.656 280.959 282.776 281.021 282.483C281.082 282.19 281.32 281.695 281.66 281.478C282 281.262 282.334 281.037 283.043 281.023C283.753 281.009 288.208 281.009 288.208 281.009C288.208 281.009 288.978 281.099 289.303 281.362C289.628 281.626 289.868 281.824 290.004 282.19C290.14 282.556 290.192 282.964 290.192 282.964H290.971C290.971 282.964 291.123 282.19 291.34 281.88C291.557 281.57 292.058 281.16 292.594 281.082C293.13 281.003 295.491 281.009 295.491 281.009H297.754C297.754 281.009 298.72 281.076 299.088 281.439C299.457 281.802 299.702 282.064 299.805 282.556C299.909 283.048 299.882 284.076 299.882 284.076L299.948 287.203H295.868L295.802 282.901V282.901ZM226.314 280.721H230.342L235.338 295.799L240.409 280.721H244.377L248.019 302.34H244.051L241.728 288.686L237.129 302.34H233.502L228.963 288.686L226.595 302.34H222.582L226.314 280.721V280.721Z" fill="#72849D"/>
<path d="M285.312 302.352C290.823 297.702 295.59 293.666 299.124 294.705C302.657 295.745 305.039 300.333 299.767 305.41" stroke="#72849D" stroke-width="0.846293"/>
<path d="M288.156 304.676C290.633 302.597 293.417 300.394 296.191 298.865C298.595 297.58 299.855 299.293 298.916 300.822L297.175 302.841" stroke="#72849D" stroke-width="0.846293"/>
<path d="M294.033 300.088C299.477 304.432 303.078 309.325 305.703 313.974C308.261 319.113 305.252 328.533 294.455 326.392" stroke="#72849D" stroke-width="0.846293"/>
<path d="M291.188 302.29C296.021 306.511 299.803 311.588 302.368 316.176C303.614 318.929 301.474 323.15 296.77 322.722" stroke="#72849D" stroke-width="0.846293"/>
<path d="M294.903 311.833C295.929 312.812 296.459 314.28 297.112 315.687C300.342 329.451 282.783 333.978 276.771 326.515" stroke="#72849D" stroke-width="0.846293"/>
<path d="M294.621 305.899C292.62 308.958 290.322 311.405 288.926 314.953C288.15 317.889 287.981 321.192 290.935 324.251" stroke="#72849D" stroke-width="0.846293"/>
<path d="M297.337 308.469C295.595 310.488 294.03 312.996 292.774 315.32C291.956 316.911 291.978 319.663 293.553 320.765" stroke="#72849D" stroke-width="0.846293"/>
<path d="M292.962 315.076C297.245 323.64 285.913 329.023 280.598 324.251" stroke="#72849D" stroke-width="0.847015"/>
<path d="M281.131 312.506C285.434 319.663 281.407 327.493 272.234 327.371C266.669 327.187 262.602 320.703 266.44 313.179C267.886 310.426 269.748 308.53 271.434 306.144" stroke="#72849D" stroke-width="0.846293"/>
<path d="M285.364 307.368C283.063 309.998 280.764 312.506 278.89 315.259C277.521 316.849 277.119 319.358 278.071 321.254" stroke="#72849D" stroke-width="0.846293"/>
<path d="M279.926 302.535C283.862 305.41 287.174 309.019 290.309 312.261" stroke="#72849D" stroke-width="0.84533"/>
<path d="M282.892 304.676C280.218 307.735 277.428 310.365 275.36 313.852C273.428 316.36 273.193 319.969 274.487 323.578" stroke="#72849D" stroke-width="0.846293"/>
<path d="M278.634 315.993C279.885 318.379 279.269 322.967 273.329 323.456C270.761 323.334 267.256 320.275 270.022 315.076C271.153 312.934 272.403 311.099 274.021 309.142" stroke="#72849D" stroke-width="0.846293"/>
<path d="M276.421 312.506C274.701 308.714 269.303 305.472 268.131 301.862C266.465 294.277 274.199 292.381 279.688 297.825" stroke="#72849D" stroke-width="0.846293"/>
<path d="M279.036 309.142C276.814 306.267 274.277 303.942 272.178 301.006C271.302 298.131 273.694 297.642 277.203 300.395" stroke="#72849D" stroke-width="0.846293"/>
<path d="M276.449 306.267C278.568 303.514 281.356 301.067 284.198 299.048C286.047 298.07 287.259 298.926 288.529 299.966" stroke="#72849D" stroke-width="0.846293"/>
<path d="M273.793 303.575C276.649 300.639 279.572 297.275 283.211 295.134C287.023 293.788 289.565 295.684 291.433 297.703" stroke="#72849D" stroke-width="0.846293"/>
<path d="M286.768 303.392C290.663 300.455 293.263 298.314 294.495 297.702C300.854 293.604 303.263 300.577 298.502 304.126" stroke="#72849D" stroke-width="1.65092"/>
<path d="M282.773 300.21C286.28 303.086 289.546 305.777 292.375 308.958" stroke="#72849D" stroke-width="0.84533"/>
<path d="M292.484 301.19C297.2 305.105 300.986 309.876 303.375 313.914C305.832 317.584 305.043 325.72 295.823 324.558" stroke="#72849D" stroke-width="1.65092"/>
<path d="M295.829 307C294.13 310.304 286.63 317.277 292.363 322.783" stroke="#72849D" stroke-width="1.65117"/>
<path d="M293.903 313.363C300.794 323.456 287.082 332.755 278.617 325.781" stroke="#72849D" stroke-width="1.65092"/>
<path d="M281.23 301.251C284.922 304.065 288.056 307.368 291.253 310.488" stroke="#72849D" stroke-width="1.65092"/>
<path d="M284.16 305.96C281.366 308.897 278.878 311.772 276.878 314.769C275.314 317.216 275.213 319.969 276.276 322.66" stroke="#72849D" stroke-width="1.65092"/>
<path d="M279.888 313.913C282.512 318.685 280.706 325.23 272.506 325.414C269.086 325.047 265.831 321.621 267.248 316.605C268.021 313.913 270.269 310.61 272.942 307.674" stroke="#72849D" stroke-width="1.65092"/>
<path d="M277.73 310.733C275.694 307.674 271.399 304.248 270.271 301.863C268.317 297.336 273.071 294.216 278.266 298.865" stroke="#72849D" stroke-width="1.65092"/>
<path d="M275.307 304.737C277.671 301.924 279.962 299.966 282.81 297.58C286.325 295.623 288.013 297.336 289.889 298.804" stroke="#72849D" stroke-width="1.65092"/>
<path fill-rule="evenodd" clip-rule="evenodd" d="M279.036 309.142C276.814 306.267 274.278 303.943 272.178 301.006C271.301 298.131 273.694 297.642 277.203 300.395C273.694 297.642 271.301 298.131 272.178 301.006C274.278 303.943 276.814 306.267 279.036 309.142Z" stroke="#72849D" stroke-width="0.417737"/>
<path fill-rule="evenodd" clip-rule="evenodd" d="M284.16 305.96C281.366 308.897 278.878 311.772 276.878 314.769C275.314 317.216 275.213 319.969 276.276 322.66C275.213 319.969 275.314 317.216 276.878 314.769C278.878 311.772 281.366 308.897 284.16 305.96Z" stroke="#72849D" stroke-width="0.417737"/>
</g>
<path d="M174 189.836V190.534C174 191.723 173.835 192.79 173.506 193.735C173.184 194.681 172.722 195.486 172.12 196.152C171.526 196.818 170.817 197.33 169.993 197.688C169.177 198.039 168.271 198.215 167.275 198.215C166.28 198.215 165.37 198.039 164.547 197.688C163.723 197.33 163.007 196.818 162.398 196.152C161.797 195.486 161.331 194.681 161.002 193.735C160.673 192.79 160.508 191.723 160.508 190.534V189.836C160.508 188.647 160.673 187.58 161.002 186.635C161.331 185.682 161.793 184.873 162.388 184.207C162.989 183.541 163.702 183.033 164.525 182.682C165.349 182.324 166.258 182.145 167.254 182.145C168.249 182.145 169.159 182.324 169.982 182.682C170.806 183.033 171.515 183.541 172.109 184.207C172.711 184.873 173.176 185.682 173.506 186.635C173.835 187.58 174 188.647 174 189.836ZM170.466 190.534V189.814C170.466 189.02 170.394 188.318 170.251 187.709C170.108 187.093 169.9 186.577 169.628 186.162C169.356 185.747 169.019 185.435 168.618 185.228C168.217 185.013 167.762 184.905 167.254 184.905C166.724 184.905 166.262 185.013 165.868 185.228C165.474 185.435 165.141 185.747 164.869 186.162C164.604 186.577 164.4 187.093 164.257 187.709C164.121 188.318 164.053 189.02 164.053 189.814V190.534C164.053 191.322 164.121 192.024 164.257 192.64C164.4 193.248 164.608 193.764 164.88 194.187C165.152 194.609 165.485 194.928 165.879 195.143C166.28 195.357 166.745 195.465 167.275 195.465C167.784 195.465 168.235 195.357 168.629 195.143C169.03 194.928 169.367 194.609 169.639 194.187C169.911 193.764 170.115 193.248 170.251 192.64C170.394 192.024 170.466 191.322 170.466 190.534ZM176.148 182.359H182.153C183.349 182.359 184.384 182.538 185.258 182.896C186.139 183.255 186.815 183.785 187.288 184.486C187.761 185.188 187.997 186.055 187.997 187.086C187.997 187.945 187.857 188.676 187.578 189.277C187.299 189.879 186.905 190.377 186.396 190.771C185.895 191.164 185.308 191.483 184.635 191.727L183.496 192.35H178.383L178.361 189.632H182.164C182.687 189.632 183.12 189.539 183.464 189.353C183.808 189.166 184.065 188.905 184.237 188.568C184.416 188.225 184.506 187.824 184.506 187.365C184.506 186.893 184.416 186.484 184.237 186.141C184.058 185.797 183.793 185.535 183.442 185.356C183.099 185.17 182.669 185.077 182.153 185.077H179.65V198H176.148V182.359ZM184.807 198L181.294 191.05L184.989 191.039L188.556 197.839V198H184.807ZM202.972 189.739V196.045C202.714 196.339 202.32 196.654 201.79 196.99C201.267 197.327 200.598 197.617 199.781 197.86C198.965 198.097 197.991 198.215 196.859 198.215C195.835 198.215 194.904 198.05 194.066 197.721C193.229 197.384 192.509 196.894 191.907 196.249C191.306 195.597 190.84 194.802 190.511 193.864C190.188 192.926 190.027 191.852 190.027 190.642V189.718C190.027 188.507 190.188 187.433 190.511 186.495C190.833 185.557 191.288 184.766 191.875 184.121C192.462 183.469 193.16 182.975 193.97 182.639C194.779 182.302 195.674 182.134 196.655 182.134C198.052 182.134 199.194 182.359 200.082 182.811C200.97 183.255 201.643 183.87 202.102 184.658C202.567 185.446 202.854 186.352 202.961 187.376H199.588C199.516 186.853 199.373 186.402 199.158 186.022C198.951 185.643 198.653 185.353 198.267 185.152C197.88 184.945 197.379 184.841 196.763 184.841C196.269 184.841 195.821 184.945 195.42 185.152C195.026 185.353 194.693 185.657 194.421 186.065C194.149 186.474 193.941 186.982 193.798 187.591C193.655 188.192 193.583 188.894 193.583 189.696V190.642C193.583 191.444 193.655 192.149 193.798 192.758C193.948 193.367 194.167 193.875 194.453 194.283C194.74 194.684 195.101 194.989 195.538 195.196C195.982 195.404 196.498 195.508 197.085 195.508C197.543 195.508 197.93 195.472 198.245 195.4C198.56 195.322 198.818 195.225 199.019 195.11C199.219 194.989 199.369 194.878 199.47 194.777V192.178H196.688V189.739H202.972ZM211.866 185.335L207.827 198H204.089L209.879 182.359H212.242L211.866 185.335ZM215.218 198L211.168 185.335L210.749 182.359H213.145L218.956 198H215.218ZM215.046 192.178V194.885H206.893V192.178H215.046ZM233.157 182.359V198H229.666L223.758 187.892V198H220.256V182.359H223.758L229.677 192.468V182.359H233.157ZM239.474 182.359V198H235.982V182.359H239.474ZM253.814 195.293V198H242.61V195.293H253.814ZM253.696 184.229L244.254 198H241.762V196.088L251.29 182.359H253.696V184.229ZM252.536 182.359V185.077H241.74V182.359H252.536ZM262.333 185.335L258.294 198H254.556L260.346 182.359H262.709L262.333 185.335ZM265.685 198L261.635 185.335L261.216 182.359H263.611L269.423 198H265.685ZM265.513 192.178V194.885H257.359V192.178H265.513ZM279.499 192.758H282.979C282.922 193.832 282.629 194.781 282.099 195.604C281.576 196.421 280.849 197.062 279.918 197.527C278.987 197.986 277.881 198.215 276.599 198.215C275.575 198.215 274.658 198.039 273.849 197.688C273.039 197.338 272.352 196.836 271.786 196.185C271.228 195.526 270.798 194.734 270.497 193.811C270.203 192.88 270.057 191.83 270.057 190.663V189.707C270.057 188.54 270.211 187.491 270.519 186.56C270.826 185.629 271.267 184.834 271.84 184.175C272.413 183.516 273.1 183.011 273.902 182.66C274.704 182.309 275.6 182.134 276.588 182.134C277.92 182.134 279.044 182.374 279.961 182.854C280.878 183.333 281.587 183.992 282.088 184.83C282.596 185.668 282.901 186.624 283.001 187.698H279.51C279.481 187.09 279.367 186.577 279.166 186.162C278.965 185.74 278.658 185.421 278.242 185.206C277.827 184.991 277.275 184.884 276.588 184.884C276.087 184.884 275.646 184.977 275.267 185.163C274.894 185.349 274.583 185.639 274.332 186.033C274.089 186.427 273.906 186.928 273.784 187.537C273.662 188.139 273.602 188.855 273.602 189.686V190.663C273.602 191.487 273.655 192.199 273.763 192.801C273.87 193.402 274.042 193.9 274.278 194.294C274.522 194.688 274.833 194.981 275.213 195.175C275.592 195.368 276.054 195.465 276.599 195.465C277.222 195.465 277.741 195.368 278.156 195.175C278.572 194.974 278.89 194.674 279.112 194.272C279.334 193.871 279.463 193.367 279.499 192.758ZM275.363 197.936H277.909L277.78 198.569C278.188 198.641 278.561 198.813 278.897 199.085C279.234 199.364 279.402 199.812 279.402 200.428C279.402 200.822 279.316 201.176 279.145 201.491C278.98 201.813 278.733 202.089 278.403 202.318C278.081 202.548 277.676 202.723 277.189 202.845C276.71 202.966 276.147 203.027 275.503 203.027L275.428 201.169C275.643 201.169 275.829 201.137 275.986 201.072C276.151 201.015 276.28 200.922 276.373 200.793C276.473 200.671 276.523 200.507 276.523 200.299C276.523 200.105 276.473 199.955 276.373 199.848C276.273 199.74 276.112 199.658 275.89 199.601C275.668 199.543 275.381 199.504 275.03 199.482L275.363 197.936ZM291.423 185.335L287.384 198H283.646L289.436 182.359H291.799L291.423 185.335ZM294.774 198L290.725 185.335L290.306 182.359H292.701L298.513 198H294.774ZM294.603 192.178V194.885H286.449V192.178H294.603ZM293.303 178.181L295.193 178.299C295.193 178.822 295.086 179.301 294.871 179.738C294.663 180.175 294.373 180.526 294.001 180.791C293.636 181.049 293.217 181.178 292.744 181.178C292.408 181.178 292.114 181.135 291.863 181.049C291.613 180.956 291.38 180.848 291.165 180.727C290.95 180.598 290.732 180.487 290.51 180.394C290.288 180.3 290.037 180.254 289.758 180.254C289.529 180.254 289.328 180.34 289.156 180.512C288.992 180.684 288.909 180.934 288.909 181.264L286.997 181.156C286.997 180.648 287.101 180.175 287.309 179.738C287.516 179.294 287.803 178.94 288.168 178.675C288.54 178.41 288.966 178.277 289.446 178.277C289.733 178.277 289.998 178.324 290.241 178.417C290.492 178.503 290.732 178.607 290.961 178.729C291.197 178.85 291.434 178.958 291.67 179.051C291.906 179.144 292.157 179.19 292.422 179.19C292.658 179.19 292.862 179.104 293.034 178.933C293.213 178.761 293.303 178.51 293.303 178.181ZM312.639 189.836V190.534C312.639 191.723 312.474 192.79 312.145 193.735C311.822 194.681 311.36 195.486 310.759 196.152C310.164 196.818 309.455 197.33 308.632 197.688C307.815 198.039 306.91 198.215 305.914 198.215C304.919 198.215 304.009 198.039 303.186 197.688C302.362 197.33 301.646 196.818 301.037 196.152C300.436 195.486 299.97 194.681 299.641 193.735C299.311 192.79 299.146 191.723 299.146 190.534V189.836C299.146 188.647 299.311 187.58 299.641 186.635C299.97 185.682 300.432 184.873 301.026 184.207C301.628 183.541 302.34 183.033 303.164 182.682C303.988 182.324 304.897 182.145 305.893 182.145C306.888 182.145 307.798 182.324 308.621 182.682C309.445 183.033 310.154 183.541 310.748 184.207C311.35 184.873 311.815 185.682 312.145 186.635C312.474 187.58 312.639 188.647 312.639 189.836ZM309.104 190.534V189.814C309.104 189.02 309.033 188.318 308.89 187.709C308.746 187.093 308.539 186.577 308.267 186.162C307.994 185.747 307.658 185.435 307.257 185.228C306.856 185.013 306.401 184.905 305.893 184.905C305.363 184.905 304.901 185.013 304.507 185.228C304.113 185.435 303.78 185.747 303.508 186.162C303.243 186.577 303.039 187.093 302.896 187.709C302.759 188.318 302.691 189.02 302.691 189.814V190.534C302.691 191.322 302.759 192.024 302.896 192.64C303.039 193.248 303.246 193.764 303.519 194.187C303.791 194.609 304.124 194.928 304.518 195.143C304.919 195.357 305.384 195.465 305.914 195.465C306.423 195.465 306.874 195.357 307.268 195.143C307.669 194.928 308.005 194.609 308.277 194.187C308.549 193.764 308.754 193.248 308.89 192.64C309.033 192.024 309.104 191.322 309.104 190.534ZM330.9 195.293V198H322.575V195.293H330.9ZM323.768 182.359V198H320.266V182.359H323.768ZM329.826 188.654V191.275H322.575V188.654H329.826ZM330.911 182.359V185.077H322.575V182.359H330.911ZM162.796 211.335L158.757 224H155.019L160.809 208.359H163.172L162.796 211.335ZM166.147 224L162.098 211.335L161.679 208.359H164.074L169.886 224H166.147ZM165.976 218.178V220.885H157.822V218.178H165.976ZM171.186 208.359H177.19C178.386 208.359 179.421 208.538 180.295 208.896C181.176 209.255 181.853 209.785 182.325 210.486C182.798 211.188 183.034 212.055 183.034 213.086C183.034 213.945 182.895 214.676 182.615 215.277C182.336 215.879 181.942 216.377 181.434 216.771C180.932 217.164 180.345 217.483 179.672 217.727L178.533 218.35H173.42L173.398 215.632H177.201C177.724 215.632 178.157 215.539 178.501 215.353C178.845 215.166 179.103 214.905 179.274 214.568C179.453 214.225 179.543 213.824 179.543 213.365C179.543 212.893 179.453 212.484 179.274 212.141C179.095 211.797 178.83 211.535 178.479 211.356C178.136 211.17 177.706 211.077 177.19 211.077H174.688V224H171.186V208.359ZM179.844 224L176.331 217.05L180.026 217.039L183.593 223.839V224H179.844ZM194.023 221.551L198.32 224.956L196.129 226.825L191.907 223.42L194.023 221.551ZM198.471 215.836V216.534C198.471 217.723 198.306 218.79 197.977 219.735C197.647 220.681 197.182 221.486 196.58 222.152C195.979 222.818 195.266 223.33 194.442 223.688C193.626 224.039 192.72 224.215 191.725 224.215C190.729 224.215 189.82 224.039 188.996 223.688C188.173 223.33 187.456 222.818 186.848 222.152C186.246 221.486 185.781 220.681 185.451 219.735C185.122 218.79 184.957 217.723 184.957 216.534V215.836C184.957 214.647 185.122 213.58 185.451 212.635C185.781 211.682 186.243 210.873 186.837 210.207C187.438 209.541 188.151 209.033 188.975 208.682C189.798 208.324 190.708 208.145 191.703 208.145C192.699 208.145 193.608 208.324 194.432 208.682C195.255 209.033 195.968 209.541 196.569 210.207C197.171 210.873 197.636 211.682 197.966 212.635C198.302 213.58 198.471 214.647 198.471 215.836ZM194.915 216.534V215.814C194.915 215.02 194.843 214.318 194.7 213.709C194.564 213.093 194.356 212.577 194.077 212.162C193.805 211.747 193.468 211.435 193.067 211.228C192.666 211.013 192.212 210.905 191.703 210.905C191.18 210.905 190.718 211.013 190.317 211.228C189.924 211.435 189.59 211.747 189.318 212.162C189.053 212.577 188.849 213.093 188.706 213.709C188.57 214.318 188.502 215.02 188.502 215.814V216.534C188.502 217.322 188.57 218.024 188.706 218.64C188.849 219.248 189.057 219.764 189.329 220.187C189.601 220.609 189.938 220.928 190.339 221.143C190.74 221.357 191.202 221.465 191.725 221.465C192.233 221.465 192.684 221.357 193.078 221.143C193.479 220.928 193.816 220.609 194.088 220.187C194.36 219.764 194.564 219.248 194.7 218.64C194.843 218.024 194.915 217.322 194.915 216.534ZM209.159 208.359H212.661V218.629C212.661 219.846 212.403 220.87 211.888 221.701C211.379 222.532 210.67 223.159 209.761 223.581C208.851 224.004 207.799 224.215 206.603 224.215C205.399 224.215 204.34 224.004 203.423 223.581C202.513 223.159 201.797 222.532 201.274 221.701C200.759 220.87 200.501 219.846 200.501 218.629V208.359H204.014V218.629C204.014 219.302 204.114 219.854 204.314 220.283C204.522 220.706 204.819 221.017 205.206 221.218C205.593 221.411 206.058 221.508 206.603 221.508C207.147 221.508 207.609 221.411 207.988 221.218C208.375 221.017 208.665 220.706 208.858 220.283C209.059 219.854 209.159 219.302 209.159 218.629V208.359ZM218.892 208.359V224H215.4V208.359H218.892ZM228.678 208.359V224H225.187V208.359H228.678ZM233.437 208.359V211.077H220.524V208.359H233.437ZM245.801 221.293V224H237.476V221.293H245.801ZM238.668 208.359V224H235.166V208.359H238.668ZM244.727 214.654V217.275H237.476V214.654H244.727ZM245.812 208.359V211.077H237.476V208.359H245.812ZM255.018 208.359V224H251.526V208.359H255.018ZM259.776 208.359V211.077H246.864V208.359H259.776ZM270.067 208.359H273.569V218.629C273.569 219.846 273.312 220.87 272.796 221.701C272.287 222.532 271.578 223.159 270.669 223.581C269.759 224.004 268.707 224.215 267.511 224.215C266.308 224.215 265.248 224.004 264.331 223.581C263.422 223.159 262.705 222.532 262.183 221.701C261.667 220.87 261.409 219.846 261.409 218.629V208.359H264.922V218.629C264.922 219.302 265.022 219.854 265.223 220.283C265.43 220.706 265.728 221.017 266.114 221.218C266.501 221.411 266.966 221.508 267.511 221.508C268.055 221.508 268.517 221.411 268.896 221.218C269.283 221.017 269.573 220.706 269.767 220.283C269.967 219.854 270.067 219.302 270.067 218.629V208.359ZM276.072 208.359H282.077C283.273 208.359 284.308 208.538 285.182 208.896C286.062 209.255 286.739 209.785 287.212 210.486C287.685 211.188 287.921 212.055 287.921 213.086C287.921 213.945 287.781 214.676 287.502 215.277C287.223 215.879 286.829 216.377 286.32 216.771C285.819 217.164 285.232 217.483 284.559 217.727L283.42 218.35H278.307L278.285 215.632H282.088C282.611 215.632 283.044 215.539 283.388 215.353C283.731 215.166 283.989 214.905 284.161 214.568C284.34 214.225 284.43 213.824 284.43 213.365C284.43 212.893 284.34 212.484 284.161 212.141C283.982 211.797 283.717 211.535 283.366 211.356C283.022 211.17 282.593 211.077 282.077 211.077H279.574V224H276.072V208.359ZM284.73 224L281.218 217.05L284.913 217.039L288.479 223.839V224H284.73ZM296.794 211.335L292.755 224H289.017L294.807 208.359H297.17L296.794 211.335ZM300.146 224L296.096 211.335L295.677 208.359H298.072L303.884 224H300.146ZM299.974 218.178V220.885H291.82V218.178H299.974ZM315.614 224H312.177L312.198 221.293H315.614C316.395 221.293 317.054 221.114 317.591 220.756C318.128 220.391 318.536 219.854 318.815 219.145C319.095 218.428 319.234 217.558 319.234 216.534V215.814C319.234 215.041 319.156 214.361 318.998 213.773C318.84 213.179 318.608 212.681 318.3 212.28C317.992 211.879 317.609 211.578 317.15 211.378C316.699 211.177 316.18 211.077 315.593 211.077H312.112V208.359H315.593C316.653 208.359 317.619 208.538 318.493 208.896C319.374 209.255 320.133 209.767 320.771 210.433C321.415 211.099 321.913 211.886 322.264 212.796C322.615 213.705 322.79 214.719 322.79 215.836V216.534C322.79 217.644 322.615 218.658 322.264 219.574C321.913 220.484 321.415 221.271 320.771 221.938C320.133 222.596 319.378 223.105 318.504 223.463C317.63 223.821 316.667 224 315.614 224ZM314.164 208.359V224H310.662V208.359H314.164ZM335.562 221.293V224H327.237V221.293H335.562ZM328.43 208.359V224H324.928V208.359H328.43ZM334.488 214.654V217.275H327.237V214.654H334.488ZM335.573 208.359V211.077H327.237V208.359H335.573ZM168.36 244.758H171.841C171.784 245.832 171.49 246.781 170.96 247.604C170.437 248.421 169.71 249.062 168.779 249.527C167.848 249.986 166.742 250.215 165.46 250.215C164.436 250.215 163.519 250.039 162.71 249.688C161.901 249.338 161.213 248.836 160.647 248.185C160.089 247.526 159.659 246.734 159.358 245.811C159.065 244.88 158.918 243.83 158.918 242.663V241.707C158.918 240.54 159.072 239.491 159.38 238.56C159.688 237.629 160.128 236.834 160.701 236.175C161.274 235.516 161.962 235.011 162.764 234.66C163.566 234.309 164.461 234.134 165.449 234.134C166.781 234.134 167.906 234.374 168.822 234.854C169.739 235.333 170.448 235.992 170.949 236.83C171.458 237.668 171.762 238.624 171.862 239.698H168.371C168.342 239.09 168.228 238.577 168.027 238.162C167.827 237.74 167.519 237.421 167.104 237.206C166.688 236.991 166.137 236.884 165.449 236.884C164.948 236.884 164.507 236.977 164.128 237.163C163.756 237.349 163.444 237.639 163.193 238.033C162.95 238.427 162.767 238.928 162.646 239.537C162.524 240.139 162.463 240.855 162.463 241.686V242.663C162.463 243.487 162.517 244.199 162.624 244.801C162.731 245.402 162.903 245.9 163.14 246.294C163.383 246.688 163.695 246.981 164.074 247.175C164.454 247.368 164.916 247.465 165.46 247.465C166.083 247.465 166.602 247.368 167.018 247.175C167.433 246.974 167.752 246.674 167.974 246.272C168.196 245.871 168.325 245.367 168.36 244.758ZM186.826 241.836V242.534C186.826 243.723 186.661 244.79 186.332 245.735C186.01 246.681 185.548 247.486 184.946 248.152C184.352 248.818 183.643 249.33 182.819 249.688C182.003 250.039 181.097 250.215 180.102 250.215C179.106 250.215 178.197 250.039 177.373 249.688C176.549 249.33 175.833 248.818 175.225 248.152C174.623 247.486 174.158 246.681 173.828 245.735C173.499 244.79 173.334 243.723 173.334 242.534V241.836C173.334 240.647 173.499 239.58 173.828 238.635C174.158 237.682 174.619 236.873 175.214 236.207C175.815 235.541 176.528 235.033 177.352 234.682C178.175 234.324 179.085 234.145 180.08 234.145C181.076 234.145 181.985 234.324 182.809 234.682C183.632 235.033 184.341 235.541 184.936 236.207C185.537 236.873 186.003 237.682 186.332 238.635C186.661 239.58 186.826 240.647 186.826 241.836ZM183.292 242.534V241.814C183.292 241.02 183.22 240.318 183.077 239.709C182.934 239.093 182.726 238.577 182.454 238.162C182.182 237.747 181.845 237.435 181.444 237.228C181.043 237.013 180.589 236.905 180.08 236.905C179.55 236.905 179.088 237.013 178.694 237.228C178.3 237.435 177.967 237.747 177.695 238.162C177.43 238.577 177.226 239.093 177.083 239.709C176.947 240.318 176.879 241.02 176.879 241.814V242.534C176.879 243.322 176.947 244.024 177.083 244.64C177.226 245.248 177.434 245.764 177.706 246.187C177.978 246.609 178.311 246.928 178.705 247.143C179.106 247.357 179.572 247.465 180.102 247.465C180.61 247.465 181.061 247.357 181.455 247.143C181.856 246.928 182.193 246.609 182.465 246.187C182.737 245.764 182.941 245.248 183.077 244.64C183.22 244.024 183.292 243.322 183.292 242.534ZM190.65 234.359H193.551L197.311 245.542L201.06 234.359H203.96L198.481 250H196.129L190.65 234.359ZM188.975 234.359H191.929L192.477 245.95V250H188.975V234.359ZM202.682 234.359H205.646V250H202.134V245.95L202.682 234.359ZM214.412 244.564H210.48V241.847H214.412C214.992 241.847 215.458 241.75 215.809 241.557C216.167 241.363 216.428 241.098 216.593 240.762C216.765 240.418 216.851 240.031 216.851 239.602C216.851 239.158 216.765 238.746 216.593 238.366C216.428 237.979 216.167 237.668 215.809 237.432C215.458 237.195 214.992 237.077 214.412 237.077H211.748V250H208.246V234.359H214.412C215.658 234.359 216.725 234.585 217.613 235.036C218.508 235.487 219.192 236.107 219.665 236.895C220.145 237.675 220.385 238.57 220.385 239.58C220.385 240.59 220.145 241.467 219.665 242.212C219.192 242.957 218.508 243.537 217.613 243.952C216.725 244.36 215.658 244.564 214.412 244.564ZM231.073 234.359H234.575V244.629C234.575 245.846 234.317 246.87 233.802 247.701C233.293 248.532 232.584 249.159 231.675 249.581C230.765 250.004 229.713 250.215 228.517 250.215C227.313 250.215 226.254 250.004 225.337 249.581C224.427 249.159 223.711 248.532 223.188 247.701C222.673 246.87 222.415 245.846 222.415 244.629V234.359H225.928V244.629C225.928 245.302 226.028 245.854 226.229 246.283C226.436 246.706 226.733 247.017 227.12 247.218C227.507 247.411 227.972 247.508 228.517 247.508C229.061 247.508 229.523 247.411 229.902 247.218C230.289 247.017 230.579 246.706 230.772 246.283C230.973 245.854 231.073 245.302 231.073 244.629V234.359ZM244.361 234.359V250H240.87V234.359H244.361ZM249.12 234.359V237.077H236.208V234.359H249.12ZM256.124 237.335L252.085 250H248.347L254.137 234.359H256.5L256.124 237.335ZM259.476 250L255.426 237.335L255.007 234.359H257.402L263.214 250H259.476ZM259.304 244.178V246.885H251.15V244.178H259.304ZM269.466 250H266.028L266.05 247.293H269.466C270.246 247.293 270.905 247.114 271.442 246.756C271.979 246.391 272.388 245.854 272.667 245.145C272.946 244.428 273.086 243.558 273.086 242.534V241.814C273.086 241.041 273.007 240.361 272.85 239.773C272.692 239.179 272.459 238.681 272.151 238.28C271.843 237.879 271.46 237.578 271.002 237.378C270.551 237.177 270.032 237.077 269.444 237.077H265.964V234.359H269.444C270.504 234.359 271.471 234.538 272.345 234.896C273.226 235.255 273.985 235.767 274.622 236.433C275.267 237.099 275.764 237.886 276.115 238.796C276.466 239.705 276.642 240.719 276.642 241.836V242.534C276.642 243.644 276.466 244.658 276.115 245.574C275.764 246.484 275.267 247.271 274.622 247.938C273.985 248.596 273.229 249.105 272.355 249.463C271.482 249.821 270.519 250 269.466 250ZM268.016 234.359V250H264.514V234.359H268.016ZM291.82 241.836V242.534C291.82 243.723 291.656 244.79 291.326 245.735C291.004 246.681 290.542 247.486 289.94 248.152C289.346 248.818 288.637 249.33 287.813 249.688C286.997 250.039 286.091 250.215 285.096 250.215C284.1 250.215 283.191 250.039 282.367 249.688C281.544 249.33 280.827 248.818 280.219 248.152C279.617 247.486 279.152 246.681 278.822 245.735C278.493 244.79 278.328 243.723 278.328 242.534V241.836C278.328 240.647 278.493 239.58 278.822 238.635C279.152 237.682 279.614 236.873 280.208 236.207C280.81 235.541 281.522 235.033 282.346 234.682C283.169 234.324 284.079 234.145 285.074 234.145C286.07 234.145 286.979 234.324 287.803 234.682C288.626 235.033 289.335 235.541 289.93 236.207C290.531 236.873 290.997 237.682 291.326 238.635C291.656 239.58 291.82 240.647 291.82 241.836ZM288.286 242.534V241.814C288.286 241.02 288.215 240.318 288.071 239.709C287.928 239.093 287.72 238.577 287.448 238.162C287.176 237.747 286.84 237.435 286.438 237.228C286.037 237.013 285.583 236.905 285.074 236.905C284.544 236.905 284.082 237.013 283.688 237.228C283.295 237.435 282.962 237.747 282.689 238.162C282.424 238.577 282.22 239.093 282.077 239.709C281.941 240.318 281.873 241.02 281.873 241.814V242.534C281.873 243.322 281.941 244.024 282.077 244.64C282.22 245.248 282.428 245.764 282.7 246.187C282.972 246.609 283.305 246.928 283.699 247.143C284.1 247.357 284.566 247.465 285.096 247.465C285.604 247.465 286.055 247.357 286.449 247.143C286.85 246.928 287.187 246.609 287.459 246.187C287.731 245.764 287.935 245.248 288.071 244.64C288.215 244.024 288.286 243.322 288.286 242.534ZM293.969 234.359H299.974C301.17 234.359 302.204 234.538 303.078 234.896C303.959 235.255 304.636 235.785 305.108 236.486C305.581 237.188 305.817 238.055 305.817 239.086C305.817 239.945 305.678 240.676 305.398 241.277C305.119 241.879 304.725 242.377 304.217 242.771C303.715 243.164 303.128 243.483 302.455 243.727L301.316 244.35H296.203L296.182 241.632H299.984C300.507 241.632 300.94 241.539 301.284 241.353C301.628 241.166 301.886 240.905 302.058 240.568C302.237 240.225 302.326 239.824 302.326 239.365C302.326 238.893 302.237 238.484 302.058 238.141C301.879 237.797 301.614 237.535 301.263 237.356C300.919 237.17 300.489 237.077 299.974 237.077H297.471V250H293.969V234.359ZM302.627 250L299.114 243.05L302.81 243.039L306.376 249.839V250H302.627ZM318.826 247.293V250H310.501V247.293H318.826ZM311.693 234.359V250H308.191V234.359H311.693ZM317.752 240.654V243.275H310.501V240.654H317.752ZM318.837 234.359V237.077H310.501V234.359H318.837ZM328.655 245.875C328.655 245.61 328.616 245.374 328.537 245.166C328.458 244.951 328.315 244.754 328.107 244.575C327.9 244.396 327.606 244.217 327.227 244.038C326.847 243.852 326.349 243.662 325.733 243.469C325.032 243.24 324.362 242.982 323.725 242.695C323.094 242.402 322.532 242.062 322.038 241.675C321.544 241.288 321.154 240.837 320.867 240.321C320.588 239.806 320.448 239.204 320.448 238.517C320.448 237.851 320.595 237.249 320.889 236.712C321.182 236.175 321.594 235.716 322.124 235.337C322.654 234.95 323.277 234.657 323.993 234.456C324.709 234.248 325.497 234.145 326.356 234.145C327.502 234.145 328.508 234.349 329.375 234.757C330.249 235.158 330.929 235.724 331.416 236.454C331.903 237.177 332.146 238.019 332.146 238.979H328.666C328.666 238.556 328.576 238.184 328.397 237.861C328.226 237.532 327.961 237.274 327.603 237.088C327.252 236.902 326.811 236.809 326.281 236.809C325.766 236.809 325.332 236.887 324.981 237.045C324.638 237.195 324.376 237.403 324.197 237.668C324.025 237.933 323.939 238.223 323.939 238.538C323.939 238.789 324.004 239.018 324.133 239.226C324.269 239.426 324.462 239.616 324.713 239.795C324.971 239.967 325.286 240.132 325.658 240.289C326.031 240.447 326.457 240.597 326.937 240.74C327.774 241.005 328.516 241.299 329.16 241.621C329.812 241.943 330.36 242.309 330.804 242.717C331.248 243.125 331.581 243.587 331.803 244.103C332.032 244.618 332.146 245.202 332.146 245.854C332.146 246.548 332.01 247.164 331.738 247.701C331.473 248.238 331.087 248.697 330.578 249.076C330.077 249.449 329.475 249.731 328.773 249.925C328.072 250.118 327.287 250.215 326.421 250.215C325.633 250.215 324.856 250.115 324.09 249.914C323.324 249.706 322.629 249.391 322.006 248.969C321.39 248.546 320.896 248.009 320.523 247.357C320.158 246.699 319.976 245.918 319.976 245.016H323.478C323.478 245.488 323.546 245.889 323.682 246.219C323.818 246.541 324.011 246.802 324.262 247.003C324.52 247.203 324.831 247.347 325.196 247.433C325.562 247.519 325.97 247.562 326.421 247.562C326.944 247.562 327.366 247.49 327.688 247.347C328.018 247.196 328.261 246.992 328.419 246.734C328.576 246.477 328.655 246.19 328.655 245.875Z" fill="#72849D"/>
<defs>
<linearGradient id="paint0_linear_703_57" x1="313.84" y1="183.807" x2="19.4699" y2="478.177" gradientUnits="userSpaceOnUse">
<stop/>
<stop offset="1" stop-opacity="0"/>
</linearGradient>
<clipPath id="clip0_703_57">
<rect width="112" height="50.6947" fill="white" transform="translate(195 280)"/>
</clipPath>
</defs>
</svg>
