<svg width="404" height="404" viewBox="0 0 404 404" fill="none" xmlns="http://www.w3.org/2000/svg">
<path d="M0 36C0 16.1177 16.1178 0 36 0H368C387.882 0 404 16.1178 404 36V368C404 387.882 387.882 404 368 404H36C16.1177 404 0 387.882 0 368V36Z" fill="#1C8ADB"/>
<g filter="url(#filter0_d_752_177)">
<path d="M101.28 70.9541L76.0801 96.1541V306.594L101.28 331.794H311.72L336.92 306.594V96.1541L311.72 70.9541H101.28ZM328.07 299.454L304.58 322.944H108.42L84.9301 299.454V103.294L108.42 79.8041H304.58L328.07 103.294V299.454Z" fill="white"/>
<path d="M112.86 86.874L90.71 109.024V294.014L112.86 316.164H297.85L320 294.014V109.024L297.85 86.874H112.86ZM112.86 119.816H139.41V130.973H112.86V119.816ZM112.86 152.756H139.41V163.914H112.86V152.756ZM112.86 185.698H139.41V196.855H112.86V185.698ZM112.86 218.64H139.41V229.797H112.86V218.64ZM112.86 251.581H139.41V262.738H112.86V251.581ZM358.79 113.731H385.34V124.888H358.79V113.731ZM358.79 146.673H385.34V157.83H358.79V146.673ZM358.79 179.613H385.34V190.771H358.79V179.613ZM358.79 212.555H385.34V223.712H358.79V212.555ZM358.79 245.497H385.34V256.654H358.79V245.497ZM358.79 278.438H385.34V289.595H358.79V278.438ZM117.74 354.78H128.897V381.33H117.74V354.78ZM150.682 354.78H161.839V381.33H150.682V354.78ZM183.622 354.78H194.78V381.33H183.622V354.78ZM216.564 354.78H227.721V381.33H216.562L216.564 354.78ZM249.506 354.78H260.663V381.33H249.507L249.506 354.78ZM282.447 354.78H293.604V381.33H282.447V354.78ZM117.737 22H128.894V48.55H117.737V22ZM150.679 22H161.836V48.55H150.679V22ZM183.619 22H194.777V48.55H183.619V22ZM216.561 22H227.718V48.55H216.559L216.561 22ZM249.503 22H260.66V48.55H249.504L249.503 22ZM282.444 22H293.601V48.55H282.444V22Z" fill="white"/>
<path d="M44.55 113.731H18V124.888H44.55V113.731Z" fill="white"/>
<path d="M44.55 146.673H18V157.83H44.55V146.673Z" fill="white"/>
<path d="M44.55 179.613H18V190.771H44.55V179.613Z" fill="white"/>
<path d="M44.55 212.555H18V223.712H44.55V212.555Z" fill="white"/>
<path d="M44.55 245.497H18V256.654H44.55V245.497Z" fill="white"/>
<path d="M44.55 278.438H18V289.595H44.55V278.438Z" fill="white"/>
<path d="M173.5 109.024L99.5849 108.659L106 298.374H173.5V109.024Z" fill="white"/>
</g>
<g clip-path="url(#clip0_752_177)">
<path fill-rule="evenodd" clip-rule="evenodd" d="M230.91 245.011H231.663V237.363H235.743V236.645H226.077V244.919C226.077 244.919 225.877 245.73 226.281 246.428C226.684 247.127 226.806 247.419 227.475 247.742C228.144 248.067 228.394 248.119 229.167 248.119C229.94 248.119 233.734 248.119 233.734 248.119C233.734 248.119 234.371 248.117 234.779 247.962C235.188 247.807 235.476 247.638 235.711 247.395C235.946 247.152 236.119 246.815 236.119 246.815C236.119 246.815 236.415 247.189 236.621 247.395C236.827 247.601 237.163 247.811 237.427 247.951C237.691 248.091 238.357 248.148 238.674 248.148C238.992 248.148 243.63 248.148 243.63 248.148C243.63 248.148 244.492 248.195 245.343 247.714C246.194 247.233 246.369 246.49 246.453 245.99C246.537 245.489 246.537 245.415 246.537 245.257C246.537 245.099 246.537 244.483 246.537 244.483L245.128 242.965L241.801 239.38L241.236 239.856L245.784 244.756C245.784 244.756 245.753 245.635 245.692 245.928C245.63 246.222 245.392 246.717 245.052 246.933C244.712 247.15 244.378 247.374 243.669 247.389C242.96 247.402 238.504 247.402 238.504 247.402C238.504 247.402 237.735 247.313 237.409 247.049C237.084 246.785 236.845 246.588 236.708 246.222C236.572 245.856 236.52 245.447 236.52 245.447H235.742C235.742 245.447 235.589 246.222 235.372 246.532C235.155 246.842 234.654 247.252 234.118 247.33C233.582 247.408 231.221 247.402 231.221 247.402H228.958C228.958 247.402 227.992 247.335 227.624 246.973C227.256 246.61 227.011 246.347 226.907 245.856C226.804 245.363 226.83 244.336 226.83 244.336V239.287V237.363H230.91V245.011V245.011ZM219.496 264.839C219.496 265.043 219.44 265.246 219.331 265.446C219.221 265.646 219.066 265.815 218.869 265.955C218.652 266.106 218.399 266.223 218.111 266.308C217.821 266.393 217.472 266.435 217.065 266.435C216.629 266.435 216.236 266.4 215.887 266.329C215.538 266.259 215.183 266.154 214.822 266.014V265.139H214.879C215.186 265.361 215.539 265.531 215.941 265.651C216.343 265.77 216.72 265.831 217.074 265.831C217.573 265.831 217.962 265.75 218.24 265.587C218.517 265.425 218.656 265.209 218.656 264.937C218.656 264.705 218.591 264.533 218.459 264.422C218.327 264.311 218.127 264.225 217.859 264.164C217.655 264.117 217.435 264.078 217.197 264.048C216.96 264.016 216.708 263.978 216.441 263.931C215.905 263.832 215.506 263.663 215.247 263.424C214.987 263.184 214.858 262.873 214.858 262.49C214.858 262.05 215.072 261.688 215.502 261.407C215.93 261.126 216.475 260.985 217.134 260.985C217.56 260.985 217.95 261.02 218.306 261.091C218.662 261.161 218.978 261.249 219.251 261.353V262.179H219.194C218.964 262.009 218.661 261.869 218.284 261.757C217.909 261.645 217.524 261.589 217.131 261.589C216.7 261.589 216.352 261.666 216.091 261.822C215.828 261.977 215.698 262.178 215.698 262.422C215.698 262.642 215.763 262.813 215.894 262.939C216.023 263.063 216.252 263.159 216.581 263.224C216.755 263.258 217.001 263.298 217.322 263.345C217.642 263.392 217.913 263.44 218.137 263.489C218.587 263.593 218.926 263.75 219.154 263.96C219.382 264.168 219.496 264.461 219.496 264.839V264.839ZM211.317 261.684C211.564 261.92 211.753 262.208 211.885 262.55C212.017 262.891 212.083 263.278 212.083 263.711C212.083 264.146 212.016 264.534 211.881 264.876C211.746 265.218 211.559 265.504 211.317 265.732C211.067 265.971 210.772 266.149 210.431 266.27C210.091 266.389 209.702 266.449 209.265 266.449C208.839 266.449 208.451 266.388 208.102 266.266C207.753 266.143 207.457 265.966 207.213 265.732C206.968 265.499 206.78 265.213 206.649 264.874C206.517 264.535 206.451 264.148 206.451 263.711C206.451 263.283 206.517 262.899 206.647 262.559C206.776 262.218 206.967 261.927 207.217 261.684C207.456 261.453 207.752 261.277 208.106 261.154C208.461 261.032 208.847 260.971 209.265 260.971C209.699 260.971 210.09 261.032 210.436 261.156C210.781 261.279 211.075 261.456 211.317 261.684V261.684ZM211.243 263.711C211.243 263.029 211.067 262.502 210.714 262.13C210.36 261.761 209.88 261.575 209.268 261.575C208.652 261.575 208.169 261.761 207.817 262.13C207.466 262.502 207.291 263.029 207.291 263.711C207.291 264.402 207.47 264.93 207.828 265.295C208.186 265.662 208.666 265.845 209.268 265.845C209.871 265.845 210.351 265.662 210.708 265.295C211.065 264.93 211.243 264.402 211.243 263.711V263.711ZM204.344 266.34H200.508V261.08H201.314V265.717H204.344V266.34V266.34ZM197.996 266.34H196.95L194.92 264.249H193.787V266.34H192.981V261.08H194.679C195.044 261.08 195.35 261.101 195.595 261.142C195.838 261.183 196.059 261.257 196.254 261.363C196.473 261.483 196.645 261.634 196.769 261.817C196.893 261.999 196.954 262.231 196.954 262.512C196.954 262.89 196.844 263.207 196.625 263.463C196.405 263.719 196.102 263.912 195.717 264.04L197.996 266.34ZM196.112 262.561C196.112 262.41 196.081 262.276 196.02 262.159C195.959 262.043 195.857 261.945 195.717 261.864C195.601 261.796 195.461 261.748 195.302 261.722C195.142 261.694 194.953 261.681 194.736 261.681H193.787V263.667H194.601C194.857 263.667 195.079 263.647 195.27 263.609C195.459 263.569 195.62 263.497 195.753 263.39C195.876 263.292 195.966 263.178 196.024 263.051C196.083 262.921 196.112 262.759 196.112 262.561V262.561ZM190.332 266.34H189.474L188.881 264.874H186.254L185.661 266.34H184.842L187.049 261.08H188.125L190.332 266.34ZM188.628 264.273L187.567 261.693L186.501 264.273H188.628ZM182.682 265.959C182.533 266.014 182.397 266.067 182.277 266.117C182.157 266.166 181.998 266.218 181.802 266.272C181.637 266.317 181.458 266.356 181.263 266.387C181.068 266.419 180.856 266.435 180.622 266.435C180.181 266.435 179.783 266.382 179.423 266.274C179.063 266.167 178.75 266 178.485 265.77C178.223 265.547 178.02 265.263 177.873 264.918C177.727 264.573 177.653 264.172 177.653 263.715C177.653 263.282 177.725 262.895 177.865 262.554C178.007 262.212 178.21 261.923 178.476 261.688C178.733 261.46 179.045 261.286 179.41 261.165C179.776 261.045 180.18 260.985 180.626 260.985C180.952 260.985 181.277 261.019 181.601 261.088C181.926 261.156 182.286 261.276 182.682 261.448V262.278H182.621C182.287 262.035 181.956 261.858 181.627 261.748C181.299 261.637 180.947 261.582 180.573 261.582C180.266 261.582 179.99 261.626 179.745 261.711C179.499 261.796 179.279 261.931 179.088 262.111C178.9 262.289 178.754 262.512 178.65 262.782C178.546 263.051 178.493 263.361 178.493 263.715C178.493 264.085 178.55 264.403 178.665 264.669C178.781 264.935 178.929 265.152 179.111 265.319C179.302 265.493 179.524 265.622 179.777 265.706C180.032 265.789 180.3 265.831 180.582 265.831C180.97 265.831 181.334 265.773 181.673 265.657C182.012 265.543 182.328 265.369 182.625 265.139H182.682V265.959V265.959ZM170.68 261.684C170.927 261.92 171.116 262.208 171.248 262.55C171.38 262.891 171.445 263.278 171.445 263.711C171.445 264.146 171.379 264.534 171.244 264.876C171.109 265.218 170.921 265.504 170.68 265.732C170.429 265.971 170.135 266.149 169.794 266.27C169.454 266.389 169.065 266.449 168.628 266.449C168.202 266.449 167.814 266.388 167.465 266.266C167.116 266.143 166.82 265.966 166.575 265.732C166.331 265.499 166.144 265.213 166.011 264.874C165.879 264.535 165.814 264.148 165.814 263.711C165.814 263.283 165.879 262.899 166.01 262.559C166.139 262.218 166.33 261.927 166.58 261.684C166.819 261.453 167.115 261.277 167.469 261.154C167.824 261.032 168.21 260.971 168.628 260.971C169.062 260.971 169.452 261.032 169.798 261.156C170.145 261.279 170.438 261.456 170.68 261.684V261.684ZM170.606 263.711C170.606 263.029 170.429 262.502 170.076 262.13C169.724 261.761 169.243 261.575 168.631 261.575C168.016 261.575 167.532 261.761 167.18 262.13C166.828 262.502 166.653 263.029 166.653 263.711C166.653 264.402 166.833 264.93 167.191 265.295C167.548 265.662 168.029 265.845 168.631 265.845C169.234 265.845 169.714 265.662 170.071 265.295C170.428 264.93 170.606 264.402 170.606 263.711V263.711ZM163.511 266.34H162.653L162.06 264.874H159.433L158.839 266.34H158.021L160.228 261.08H161.304L163.511 266.34V266.34ZM161.807 264.273L160.746 261.693L159.68 264.273H161.807ZM162.47 259.302C162.441 259.66 162.335 259.93 162.156 260.111C161.976 260.293 161.737 260.384 161.436 260.384C161.288 260.384 161.154 260.361 161.028 260.315C160.904 260.269 160.785 260.201 160.674 260.114C160.546 260.013 160.438 259.938 160.35 259.887C160.262 259.836 160.165 259.811 160.059 259.811C159.918 259.811 159.813 259.864 159.742 259.97C159.671 260.076 159.63 260.219 159.62 260.398H159.086C159.108 260.042 159.215 259.774 159.407 259.593C159.6 259.411 159.836 259.32 160.116 259.32C160.252 259.32 160.382 259.343 160.509 259.389C160.635 259.435 160.755 259.5 160.869 259.585C160.996 259.682 161.11 259.754 161.209 259.803C161.308 259.851 161.402 259.875 161.493 259.875C161.631 259.875 161.739 259.821 161.817 259.712C161.893 259.604 161.936 259.467 161.944 259.302H162.47V259.302ZM155.705 264.839C155.705 265.043 155.65 265.246 155.54 265.446C155.43 265.646 155.276 265.815 155.079 265.955C154.862 266.106 154.609 266.223 154.32 266.308C154.031 266.393 153.682 266.435 153.275 266.435C152.838 266.435 152.445 266.4 152.096 266.329C151.747 266.259 151.393 266.154 151.031 266.014V265.139H151.088C151.396 265.361 151.749 265.531 152.15 265.651C152.552 265.77 152.93 265.831 153.283 265.831C153.782 265.831 154.171 265.75 154.449 265.587C154.727 265.425 154.866 265.209 154.866 264.937C154.866 264.705 154.801 264.533 154.668 264.422C154.537 264.311 154.336 264.225 154.068 264.164C153.864 264.117 153.644 264.078 153.406 264.048C153.169 264.016 152.918 263.978 152.65 263.931C152.114 263.832 151.715 263.663 151.457 263.424C151.197 263.184 151.068 262.873 151.068 262.49C151.068 262.05 151.282 261.688 151.711 261.407C152.139 261.126 152.684 260.985 153.344 260.985C153.769 260.985 154.16 261.02 154.516 261.091C154.871 261.161 155.187 261.249 155.461 261.353V262.179H155.404C155.173 262.009 154.87 261.869 154.494 261.757C154.118 261.645 153.733 261.589 153.34 261.589C152.909 261.589 152.562 261.666 152.3 261.822C152.038 261.977 151.907 262.178 151.907 262.422C151.907 262.642 151.973 262.813 152.103 262.939C152.232 263.063 152.462 263.159 152.791 263.224C152.965 263.258 153.211 263.298 153.532 263.345C153.852 263.392 154.122 263.44 154.346 263.489C154.797 263.593 155.136 263.75 155.364 263.96C155.591 264.168 155.705 264.461 155.705 264.839V264.839ZM225.189 240.903L222.31 243.651C220.349 241.585 218.147 240.552 215.699 240.552C213.628 240.552 211.887 241.259 210.472 242.669C209.058 244.078 208.351 245.818 208.351 247.885C208.351 249.325 208.662 250.604 209.289 251.717C209.915 252.836 210.804 253.714 211.947 254.35C213.096 254.988 214.37 255.303 215.769 255.303C216.963 255.303 218.057 255.083 219.05 254.636C220.013 254.202 221.285 253.423 222.433 252.294C221.779 253.268 221.305 255.134 221.25 256.243C221.196 257.352 221.254 257.518 221.346 258.095C221.159 258.189 220.759 258.275 220.575 258.353C219.155 258.955 217.535 259.256 215.709 259.256C212.353 259.256 209.6 258.193 207.458 256.061C205.321 253.929 204.248 251.201 204.248 247.87C204.248 245.713 204.734 243.797 205.712 242.122C206.685 240.446 208.08 239.102 209.901 238.084C211.716 237.066 213.673 236.554 215.769 236.554C217.555 236.554 219.27 236.93 220.921 237.687C222.571 238.44 223.995 239.513 225.189 240.903V240.903ZM150.521 237.096H154.605V258.714H150.521V237.096ZM177.615 240.903L174.735 243.651C172.774 241.585 170.572 240.552 168.124 240.552C166.053 240.552 164.312 241.259 162.897 242.669C161.483 244.078 160.776 245.818 160.776 247.885C160.776 249.325 161.087 250.604 161.714 251.717C162.341 252.836 163.229 253.714 164.372 254.35C165.521 254.988 166.795 255.303 168.194 255.303C169.388 255.303 170.482 255.083 171.475 254.636C172.463 254.19 173.551 253.383 174.735 252.204L177.529 255.113C175.929 256.673 174.419 257.751 173 258.353C171.58 258.955 169.96 259.256 168.134 259.256C164.778 259.256 162.025 258.193 159.883 256.061C157.746 253.929 156.673 251.201 156.673 247.87C156.673 245.713 157.159 243.797 158.137 242.122C159.111 240.446 160.505 239.102 162.326 238.084C164.141 237.066 166.098 236.554 168.194 236.554C169.98 236.554 171.695 236.93 173.346 237.687C174.996 238.44 176.42 239.513 177.615 240.903ZM251.302 239.275H250.549V247.423H246.469V248.141H251.456L251.371 244.35L256.135 244.313V239.867C256.135 239.867 256.335 239.056 255.932 238.357C255.528 237.659 255.407 237.367 254.737 237.043C254.068 236.719 253.818 236.667 253.045 236.667C252.272 236.667 248.479 236.667 248.479 236.667C248.479 236.667 247.842 236.669 247.433 236.824C247.025 236.979 246.736 237.148 246.501 237.391C246.267 237.634 246.093 237.97 246.093 237.97C246.093 237.97 245.797 237.597 245.591 237.391C245.385 237.184 245.049 236.975 244.785 236.835C244.521 236.695 243.855 236.639 243.538 236.639C243.221 236.639 238.582 236.639 238.582 236.639C238.582 236.639 237.72 236.592 236.869 237.072C236.018 237.553 235.843 238.296 235.759 238.796C235.675 239.297 235.675 239.371 235.675 239.529C235.675 239.687 235.675 240.303 235.675 240.303L237.085 241.821L240.412 245.406L240.976 244.93L236.428 240.03C236.428 240.03 236.459 239.151 236.521 238.858C236.582 238.564 236.82 238.069 237.16 237.853C237.5 237.636 237.834 237.411 238.543 237.397C239.253 237.383 243.708 237.383 243.708 237.383C243.708 237.383 244.478 237.473 244.803 237.737C245.128 238 245.368 238.198 245.504 238.564C245.64 238.931 245.692 239.339 245.692 239.339H246.471C246.471 239.339 246.623 238.564 246.84 238.254C247.057 237.944 247.558 237.534 248.094 237.456C248.63 237.378 250.991 237.383 250.991 237.383H253.254C253.254 237.383 254.22 237.451 254.588 237.814C254.957 238.176 255.202 238.439 255.305 238.931C255.409 239.422 255.382 240.45 255.382 240.45L255.448 243.577H251.368L251.302 239.275V239.275ZM181.814 237.096H185.842L190.838 252.174L195.909 237.096H199.877L203.519 258.714H199.551L197.228 245.061L192.629 258.714H189.002L184.463 245.061L182.095 258.714H178.082L181.814 237.096V237.096Z" fill="#72849D"/>
<path d="M240.812 258.726C246.323 254.077 251.09 250.04 254.624 251.08C258.157 252.12 260.539 256.707 255.267 261.785" stroke="#72849D" stroke-width="0.846293"/>
<path d="M243.656 261.051C246.133 258.971 248.917 256.769 251.691 255.239C254.095 253.955 255.355 255.668 254.416 257.197L252.675 259.216" stroke="#72849D" stroke-width="0.846293"/>
<path d="M249.533 256.463C254.977 260.806 258.578 265.7 261.203 270.349C263.761 275.488 260.752 284.908 249.955 282.767" stroke="#72849D" stroke-width="0.846293"/>
<path d="M246.688 258.664C251.521 262.885 255.303 267.962 257.868 272.55C259.114 275.303 256.974 279.524 252.27 279.096" stroke="#72849D" stroke-width="0.846293"/>
<path d="M250.403 268.208C251.429 269.187 251.959 270.655 252.612 272.062C255.842 285.825 238.283 290.352 232.271 282.889" stroke="#72849D" stroke-width="0.846293"/>
<path d="M250.121 262.273C248.12 265.332 245.822 267.779 244.426 271.327C243.65 274.263 243.481 277.566 246.435 280.625" stroke="#72849D" stroke-width="0.846293"/>
<path d="M252.837 264.844C251.095 266.862 249.53 269.37 248.274 271.695C247.456 273.286 247.478 276.038 249.053 277.139" stroke="#72849D" stroke-width="0.846293"/>
<path d="M248.462 271.45C252.745 280.014 241.413 285.397 236.098 280.626" stroke="#72849D" stroke-width="0.847015"/>
<path d="M236.631 268.88C240.934 276.038 236.907 283.868 227.734 283.746C222.169 283.562 218.102 277.078 221.94 269.553C223.386 266.801 225.248 264.904 226.934 262.519" stroke="#72849D" stroke-width="0.846293"/>
<path d="M240.864 263.742C238.563 266.373 236.264 268.88 234.39 271.633C233.021 273.224 232.619 275.732 233.571 277.628" stroke="#72849D" stroke-width="0.846293"/>
<path d="M235.426 258.909C239.362 261.784 242.674 265.393 245.809 268.635" stroke="#72849D" stroke-width="0.84533"/>
<path d="M238.392 261.051C235.718 264.109 232.928 266.74 230.86 270.226C228.928 272.735 228.693 276.344 229.987 279.953" stroke="#72849D" stroke-width="0.846293"/>
<path d="M234.134 272.368C235.385 274.754 234.769 279.342 228.829 279.831C226.261 279.709 222.756 276.65 225.522 271.451C226.653 269.309 227.903 267.474 229.521 265.517" stroke="#72849D" stroke-width="0.846293"/>
<path d="M231.921 268.881C230.201 265.088 224.803 261.846 223.631 258.237C221.965 250.652 229.699 248.755 235.188 254.199" stroke="#72849D" stroke-width="0.846293"/>
<path d="M234.536 265.516C232.314 262.641 229.777 260.317 227.678 257.381C226.802 254.506 229.194 254.016 232.703 256.769" stroke="#72849D" stroke-width="0.846293"/>
<path d="M231.949 262.641C234.068 259.888 236.856 257.441 239.698 255.422C241.547 254.444 242.759 255.3 244.029 256.34" stroke="#72849D" stroke-width="0.846293"/>
<path d="M229.293 259.949C232.149 257.013 235.072 253.649 238.711 251.508C242.523 250.162 245.065 252.058 246.933 254.077" stroke="#72849D" stroke-width="0.846293"/>
<path d="M242.268 259.766C246.163 256.829 248.763 254.688 249.995 254.076C256.354 249.978 258.763 256.952 254.002 260.5" stroke="#72849D" stroke-width="1.65092"/>
<path d="M238.273 256.585C241.78 259.46 245.046 262.152 247.875 265.333" stroke="#72849D" stroke-width="0.84533"/>
<path d="M247.984 257.564C252.7 261.479 256.486 266.251 258.875 270.288C261.332 273.958 260.543 282.094 251.323 280.932" stroke="#72849D" stroke-width="1.65092"/>
<path d="M251.329 263.375C249.63 266.678 242.13 273.652 247.863 279.157" stroke="#72849D" stroke-width="1.65117"/>
<path d="M249.403 269.737C256.294 279.831 242.582 289.129 234.117 282.155" stroke="#72849D" stroke-width="1.65092"/>
<path d="M236.73 257.625C240.422 260.439 243.556 263.742 246.753 266.862" stroke="#72849D" stroke-width="1.65092"/>
<path d="M239.66 262.335C236.866 265.271 234.378 268.146 232.378 271.144C230.814 273.59 230.713 276.343 231.776 279.035" stroke="#72849D" stroke-width="1.65092"/>
<path d="M235.388 270.287C238.012 275.059 236.206 281.604 228.006 281.788C224.586 281.421 221.331 277.995 222.748 272.979C223.521 270.287 225.769 266.984 228.442 264.048" stroke="#72849D" stroke-width="1.65092"/>
<path d="M233.23 267.107C231.194 264.049 226.899 260.623 225.771 258.237C223.817 253.71 228.571 250.591 233.766 255.24" stroke="#72849D" stroke-width="1.65092"/>
<path d="M230.807 261.111C233.171 258.298 235.462 256.34 238.31 253.954C241.825 251.997 243.513 253.71 245.389 255.178" stroke="#72849D" stroke-width="1.65092"/>
<path fill-rule="evenodd" clip-rule="evenodd" d="M234.536 265.516C232.314 262.641 229.778 260.317 227.678 257.381C226.801 254.506 229.194 254.016 232.703 256.769C229.194 254.016 226.801 254.506 227.678 257.381C229.778 260.317 232.314 262.641 234.536 265.516Z" stroke="#72849D" stroke-width="0.417737"/>
<path fill-rule="evenodd" clip-rule="evenodd" d="M239.66 262.335C236.866 265.271 234.378 268.146 232.378 271.144C230.814 273.59 230.713 276.343 231.776 279.035C230.713 276.343 230.814 273.59 232.378 271.144C234.378 268.146 236.866 265.271 239.66 262.335Z" stroke="#72849D" stroke-width="0.417737"/>
</g>
<path d="M129.5 146.21V146.908C129.5 148.097 129.335 149.164 129.006 150.109C128.684 151.055 128.222 151.86 127.62 152.526C127.026 153.192 126.317 153.704 125.493 154.062C124.677 154.413 123.771 154.589 122.775 154.589C121.78 154.589 120.87 154.413 120.047 154.062C119.223 153.704 118.507 153.192 117.898 152.526C117.297 151.86 116.831 151.055 116.502 150.109C116.173 149.164 116.008 148.097 116.008 146.908V146.21C116.008 145.021 116.173 143.954 116.502 143.009C116.831 142.056 117.293 141.247 117.888 140.581C118.489 139.915 119.202 139.407 120.025 139.056C120.849 138.698 121.758 138.519 122.754 138.519C123.749 138.519 124.659 138.698 125.482 139.056C126.306 139.407 127.015 139.915 127.609 140.581C128.211 141.247 128.676 142.056 129.006 143.009C129.335 143.954 129.5 145.021 129.5 146.21ZM125.966 146.908V146.188C125.966 145.394 125.894 144.692 125.751 144.083C125.608 143.467 125.4 142.951 125.128 142.536C124.856 142.121 124.519 141.809 124.118 141.602C123.717 141.387 123.262 141.279 122.754 141.279C122.224 141.279 121.762 141.387 121.368 141.602C120.974 141.809 120.641 142.121 120.369 142.536C120.104 142.951 119.9 143.467 119.757 144.083C119.621 144.692 119.553 145.394 119.553 146.188V146.908C119.553 147.696 119.621 148.398 119.757 149.014C119.9 149.622 120.108 150.138 120.38 150.561C120.652 150.983 120.985 151.302 121.379 151.517C121.78 151.731 122.245 151.839 122.775 151.839C123.284 151.839 123.735 151.731 124.129 151.517C124.53 151.302 124.867 150.983 125.139 150.561C125.411 150.138 125.615 149.622 125.751 149.014C125.894 148.398 125.966 147.696 125.966 146.908ZM131.648 138.733H137.653C138.849 138.733 139.884 138.912 140.758 139.271C141.639 139.629 142.315 140.159 142.788 140.86C143.261 141.562 143.497 142.429 143.497 143.46C143.497 144.319 143.357 145.05 143.078 145.651C142.799 146.253 142.405 146.751 141.896 147.145C141.395 147.538 140.808 147.857 140.135 148.101L138.996 148.724H133.883L133.861 146.006H137.664C138.187 146.006 138.62 145.913 138.964 145.727C139.308 145.54 139.565 145.279 139.737 144.942C139.916 144.599 140.006 144.198 140.006 143.739C140.006 143.267 139.916 142.858 139.737 142.515C139.558 142.171 139.293 141.91 138.942 141.73C138.599 141.544 138.169 141.451 137.653 141.451H135.15V154.374H131.648V138.733ZM140.307 154.374L136.794 147.424L140.489 147.413L144.056 154.213V154.374H140.307ZM158.472 146.113V152.419C158.214 152.713 157.82 153.028 157.29 153.364C156.767 153.701 156.098 153.991 155.281 154.234C154.465 154.471 153.491 154.589 152.359 154.589C151.335 154.589 150.404 154.424 149.566 154.095C148.729 153.758 148.009 153.268 147.407 152.623C146.806 151.971 146.34 151.176 146.011 150.238C145.688 149.3 145.527 148.226 145.527 147.016V146.092C145.527 144.882 145.688 143.807 146.011 142.869C146.333 141.931 146.788 141.14 147.375 140.495C147.962 139.843 148.66 139.349 149.47 139.013C150.279 138.676 151.174 138.508 152.155 138.508C153.552 138.508 154.694 138.733 155.582 139.185C156.47 139.629 157.143 140.244 157.602 141.032C158.067 141.82 158.354 142.726 158.461 143.75H155.088C155.016 143.227 154.873 142.776 154.658 142.396C154.451 142.017 154.153 141.727 153.767 141.526C153.38 141.319 152.879 141.215 152.263 141.215C151.769 141.215 151.321 141.319 150.92 141.526C150.526 141.727 150.193 142.031 149.921 142.439C149.649 142.848 149.441 143.356 149.298 143.965C149.155 144.566 149.083 145.268 149.083 146.07V147.016C149.083 147.818 149.155 148.523 149.298 149.132C149.448 149.741 149.667 150.249 149.953 150.657C150.24 151.058 150.601 151.363 151.038 151.57C151.482 151.778 151.998 151.882 152.585 151.882C153.043 151.882 153.43 151.846 153.745 151.774C154.06 151.696 154.318 151.599 154.519 151.484C154.719 151.363 154.869 151.252 154.97 151.151V148.552H152.188V146.113H158.472ZM167.366 141.709L163.327 154.374H159.589L165.379 138.733H167.742L167.366 141.709ZM170.718 154.374L166.668 141.709L166.249 138.733H168.645L174.456 154.374H170.718ZM170.546 148.552V151.259H162.393V148.552H170.546ZM188.657 138.733V154.374H185.166L179.258 144.266V154.374H175.756V138.733H179.258L185.177 148.842V138.733H188.657ZM194.974 138.733V154.374H191.482V138.733H194.974ZM209.314 151.667V154.374H198.11V151.667H209.314ZM209.196 140.603L199.754 154.374H197.262V152.462L206.79 138.733H209.196V140.603ZM208.036 138.733V141.451H197.24V138.733H208.036ZM217.833 141.709L213.794 154.374H210.056L215.846 138.733H218.209L217.833 141.709ZM221.185 154.374L217.135 141.709L216.716 138.733H219.111L224.923 154.374H221.185ZM221.013 148.552V151.259H212.859V148.552H221.013ZM234.999 149.132H238.479C238.422 150.206 238.129 151.155 237.599 151.979C237.076 152.795 236.349 153.436 235.418 153.901C234.487 154.36 233.381 154.589 232.099 154.589C231.075 154.589 230.158 154.413 229.349 154.062C228.539 153.712 227.852 153.21 227.286 152.559C226.728 151.9 226.298 151.108 225.997 150.185C225.703 149.254 225.557 148.204 225.557 147.037V146.081C225.557 144.914 225.711 143.865 226.019 142.934C226.326 142.003 226.767 141.208 227.34 140.549C227.913 139.89 228.6 139.385 229.402 139.034C230.204 138.683 231.1 138.508 232.088 138.508C233.42 138.508 234.544 138.748 235.461 139.228C236.378 139.707 237.087 140.366 237.588 141.204C238.096 142.042 238.401 142.998 238.501 144.072H235.01C234.981 143.464 234.867 142.951 234.666 142.536C234.465 142.114 234.158 141.795 233.742 141.58C233.327 141.365 232.775 141.258 232.088 141.258C231.587 141.258 231.146 141.351 230.767 141.537C230.394 141.723 230.083 142.013 229.832 142.407C229.589 142.801 229.406 143.302 229.284 143.911C229.162 144.513 229.102 145.229 229.102 146.06V147.037C229.102 147.861 229.155 148.573 229.263 149.175C229.37 149.776 229.542 150.274 229.778 150.668C230.022 151.062 230.333 151.355 230.713 151.549C231.092 151.742 231.554 151.839 232.099 151.839C232.722 151.839 233.241 151.742 233.656 151.549C234.072 151.348 234.39 151.048 234.612 150.646C234.834 150.245 234.963 149.741 234.999 149.132ZM230.863 154.31H233.409L233.28 154.943C233.688 155.015 234.061 155.187 234.397 155.459C234.734 155.738 234.902 156.186 234.902 156.802C234.902 157.196 234.816 157.55 234.645 157.865C234.48 158.188 234.233 158.463 233.903 158.692C233.581 158.922 233.176 159.097 232.689 159.219C232.21 159.34 231.647 159.401 231.003 159.401L230.928 157.543C231.143 157.543 231.329 157.511 231.486 157.446C231.651 157.389 231.78 157.296 231.873 157.167C231.973 157.045 232.023 156.881 232.023 156.673C232.023 156.479 231.973 156.329 231.873 156.222C231.773 156.114 231.612 156.032 231.39 155.975C231.168 155.917 230.881 155.878 230.53 155.856L230.863 154.31ZM246.923 141.709L242.884 154.374H239.146L244.936 138.733H247.299L246.923 141.709ZM250.274 154.374L246.225 141.709L245.806 138.733H248.201L254.013 154.374H250.274ZM250.103 148.552V151.259H241.949V148.552H250.103ZM248.803 134.555L250.693 134.673C250.693 135.196 250.586 135.675 250.371 136.112C250.163 136.549 249.873 136.9 249.501 137.165C249.136 137.423 248.717 137.552 248.244 137.552C247.908 137.552 247.614 137.509 247.363 137.423C247.113 137.33 246.88 137.222 246.665 137.101C246.45 136.972 246.232 136.861 246.01 136.768C245.788 136.674 245.537 136.628 245.258 136.628C245.029 136.628 244.828 136.714 244.656 136.886C244.492 137.058 244.409 137.308 244.409 137.638L242.497 137.53C242.497 137.022 242.601 136.549 242.809 136.112C243.016 135.668 243.303 135.314 243.668 135.049C244.04 134.784 244.466 134.651 244.946 134.651C245.233 134.651 245.498 134.698 245.741 134.791C245.992 134.877 246.232 134.981 246.461 135.103C246.697 135.224 246.934 135.332 247.17 135.425C247.406 135.518 247.657 135.564 247.922 135.564C248.158 135.564 248.362 135.479 248.534 135.307C248.713 135.135 248.803 134.884 248.803 134.555ZM268.139 146.21V146.908C268.139 148.097 267.974 149.164 267.645 150.109C267.322 151.055 266.86 151.86 266.259 152.526C265.664 153.192 264.955 153.704 264.132 154.062C263.315 154.413 262.41 154.589 261.414 154.589C260.419 154.589 259.509 154.413 258.686 154.062C257.862 153.704 257.146 153.192 256.537 152.526C255.936 151.86 255.47 151.055 255.141 150.109C254.811 149.164 254.646 148.097 254.646 146.908V146.21C254.646 145.021 254.811 143.954 255.141 143.009C255.47 142.056 255.932 141.247 256.526 140.581C257.128 139.915 257.84 139.407 258.664 139.056C259.488 138.698 260.397 138.519 261.393 138.519C262.388 138.519 263.298 138.698 264.121 139.056C264.945 139.407 265.654 139.915 266.248 140.581C266.85 141.247 267.315 142.056 267.645 143.009C267.974 143.954 268.139 145.021 268.139 146.21ZM264.604 146.908V146.188C264.604 145.394 264.533 144.692 264.39 144.083C264.246 143.467 264.039 142.951 263.767 142.536C263.494 142.121 263.158 141.809 262.757 141.602C262.356 141.387 261.901 141.279 261.393 141.279C260.863 141.279 260.401 141.387 260.007 141.602C259.613 141.809 259.28 142.121 259.008 142.536C258.743 142.951 258.539 143.467 258.396 144.083C258.259 144.692 258.191 145.394 258.191 146.188V146.908C258.191 147.696 258.259 148.398 258.396 149.014C258.539 149.622 258.746 150.138 259.019 150.561C259.291 150.983 259.624 151.302 260.018 151.517C260.419 151.731 260.884 151.839 261.414 151.839C261.923 151.839 262.374 151.731 262.768 151.517C263.169 151.302 263.505 150.983 263.777 150.561C264.049 150.138 264.254 149.622 264.39 149.014C264.533 148.398 264.604 147.696 264.604 146.908ZM286.4 151.667V154.374H278.075V151.667H286.4ZM279.268 138.733V154.374H275.766V138.733H279.268ZM285.326 145.028V147.649H278.075V145.028H285.326ZM286.411 138.733V141.451H278.075V138.733H286.411ZM118.296 167.709L114.257 180.374H110.519L116.309 164.733H118.672L118.296 167.709ZM121.647 180.374L117.598 167.709L117.179 164.733H119.574L125.386 180.374H121.647ZM121.476 174.552V177.259H113.322V174.552H121.476ZM126.686 164.733H132.69C133.886 164.733 134.921 164.912 135.795 165.271C136.676 165.629 137.353 166.159 137.825 166.86C138.298 167.562 138.534 168.429 138.534 169.46C138.534 170.319 138.395 171.05 138.115 171.651C137.836 172.253 137.442 172.751 136.934 173.145C136.432 173.538 135.845 173.857 135.172 174.101L134.033 174.724H128.92L128.898 172.006H132.701C133.224 172.006 133.657 171.913 134.001 171.727C134.345 171.54 134.603 171.279 134.774 170.942C134.953 170.599 135.043 170.198 135.043 169.739C135.043 169.267 134.953 168.858 134.774 168.515C134.595 168.171 134.33 167.91 133.979 167.73C133.636 167.544 133.206 167.451 132.69 167.451H130.188V180.374H126.686V164.733ZM135.344 180.374L131.831 173.424L135.526 173.413L139.093 180.213V180.374H135.344ZM149.523 177.925L153.82 181.33L151.629 183.199L147.407 179.794L149.523 177.925ZM153.971 172.21V172.908C153.971 174.097 153.806 175.164 153.477 176.109C153.147 177.055 152.682 177.86 152.08 178.526C151.479 179.192 150.766 179.704 149.942 180.062C149.126 180.413 148.22 180.589 147.225 180.589C146.229 180.589 145.32 180.413 144.496 180.062C143.673 179.704 142.956 179.192 142.348 178.526C141.746 177.86 141.281 177.055 140.951 176.109C140.622 175.164 140.457 174.097 140.457 172.908V172.21C140.457 171.021 140.622 169.954 140.951 169.009C141.281 168.056 141.743 167.247 142.337 166.581C142.938 165.915 143.651 165.407 144.475 165.056C145.298 164.698 146.208 164.519 147.203 164.519C148.199 164.519 149.108 164.698 149.932 165.056C150.755 165.407 151.468 165.915 152.069 166.581C152.671 167.247 153.136 168.056 153.466 169.009C153.802 169.954 153.971 171.021 153.971 172.21ZM150.415 172.908V172.188C150.415 171.394 150.343 170.692 150.2 170.083C150.064 169.467 149.856 168.951 149.577 168.536C149.305 168.121 148.968 167.809 148.567 167.602C148.166 167.387 147.712 167.279 147.203 167.279C146.68 167.279 146.218 167.387 145.817 167.602C145.424 167.809 145.09 168.121 144.818 168.536C144.553 168.951 144.349 169.467 144.206 170.083C144.07 170.692 144.002 171.394 144.002 172.188V172.908C144.002 173.696 144.07 174.398 144.206 175.014C144.349 175.622 144.557 176.138 144.829 176.561C145.101 176.983 145.438 177.302 145.839 177.517C146.24 177.731 146.702 177.839 147.225 177.839C147.733 177.839 148.184 177.731 148.578 177.517C148.979 177.302 149.316 176.983 149.588 176.561C149.86 176.138 150.064 175.622 150.2 175.014C150.343 174.398 150.415 173.696 150.415 172.908ZM164.659 164.733H168.161V175.003C168.161 176.22 167.903 177.244 167.388 178.075C166.879 178.906 166.17 179.533 165.261 179.955C164.351 180.378 163.299 180.589 162.103 180.589C160.899 180.589 159.84 180.378 158.923 179.955C158.013 179.533 157.297 178.906 156.774 178.075C156.259 177.244 156.001 176.22 156.001 175.003V164.733H159.514V175.003C159.514 175.676 159.614 176.228 159.814 176.657C160.022 177.08 160.319 177.391 160.706 177.592C161.093 177.785 161.558 177.882 162.103 177.882C162.647 177.882 163.109 177.785 163.488 177.592C163.875 177.391 164.165 177.08 164.358 176.657C164.559 176.228 164.659 175.676 164.659 175.003V164.733ZM174.392 164.733V180.374H170.9V164.733H174.392ZM184.178 164.733V180.374H180.687V164.733H184.178ZM188.937 164.733V167.451H176.024V164.733H188.937ZM201.301 177.667V180.374H192.976V177.667H201.301ZM194.168 164.733V180.374H190.666V164.733H194.168ZM200.227 171.028V173.649H192.976V171.028H200.227ZM201.312 164.733V167.451H192.976V164.733H201.312ZM210.518 164.733V180.374H207.026V164.733H210.518ZM215.276 164.733V167.451H202.364V164.733H215.276ZM225.567 164.733H229.069V175.003C229.069 176.22 228.812 177.244 228.296 178.075C227.787 178.906 227.078 179.533 226.169 179.955C225.259 180.378 224.207 180.589 223.011 180.589C221.808 180.589 220.748 180.378 219.831 179.955C218.922 179.533 218.205 178.906 217.683 178.075C217.167 177.244 216.909 176.22 216.909 175.003V164.733H220.422V175.003C220.422 175.676 220.522 176.228 220.723 176.657C220.93 177.08 221.228 177.391 221.614 177.592C222.001 177.785 222.466 177.882 223.011 177.882C223.555 177.882 224.017 177.785 224.396 177.592C224.783 177.391 225.073 177.08 225.267 176.657C225.467 176.228 225.567 175.676 225.567 175.003V164.733ZM231.572 164.733H237.577C238.773 164.733 239.808 164.912 240.682 165.271C241.562 165.629 242.239 166.159 242.712 166.86C243.185 167.562 243.421 168.429 243.421 169.46C243.421 170.319 243.281 171.05 243.002 171.651C242.723 172.253 242.329 172.751 241.82 173.145C241.319 173.538 240.732 173.857 240.059 174.101L238.92 174.724H233.807L233.785 172.006H237.588C238.111 172.006 238.544 171.913 238.888 171.727C239.231 171.54 239.489 171.279 239.661 170.942C239.84 170.599 239.93 170.198 239.93 169.739C239.93 169.267 239.84 168.858 239.661 168.515C239.482 168.171 239.217 167.91 238.866 167.73C238.522 167.544 238.093 167.451 237.577 167.451H235.074V180.374H231.572V164.733ZM240.23 180.374L236.718 173.424L240.413 173.413L243.979 180.213V180.374H240.23ZM252.294 167.709L248.255 180.374H244.517L250.307 164.733H252.67L252.294 167.709ZM255.646 180.374L251.596 167.709L251.177 164.733H253.572L259.384 180.374H255.646ZM255.474 174.552V177.259H247.32V174.552H255.474ZM271.114 180.374H267.677L267.698 177.667H271.114C271.895 177.667 272.554 177.488 273.091 177.13C273.628 176.765 274.036 176.228 274.315 175.519C274.595 174.802 274.734 173.932 274.734 172.908V172.188C274.734 171.415 274.656 170.735 274.498 170.147C274.34 169.553 274.108 169.055 273.8 168.654C273.492 168.253 273.109 167.952 272.65 167.752C272.199 167.551 271.68 167.451 271.093 167.451H267.612V164.733H271.093C272.153 164.733 273.119 164.912 273.993 165.271C274.874 165.629 275.633 166.141 276.271 166.807C276.915 167.473 277.413 168.26 277.764 169.17C278.115 170.079 278.29 171.093 278.29 172.21V172.908C278.29 174.018 278.115 175.032 277.764 175.948C277.413 176.858 276.915 177.646 276.271 178.312C275.633 178.97 274.878 179.479 274.004 179.837C273.13 180.195 272.167 180.374 271.114 180.374ZM269.664 164.733V180.374H266.162V164.733H269.664ZM291.062 177.667V180.374H282.737V177.667H291.062ZM283.93 164.733V180.374H280.428V164.733H283.93ZM289.988 171.028V173.649H282.737V171.028H289.988ZM291.073 164.733V167.451H282.737V164.733H291.073ZM123.86 201.132H127.341C127.284 202.206 126.99 203.155 126.46 203.979C125.937 204.795 125.21 205.436 124.279 205.901C123.348 206.36 122.242 206.589 120.96 206.589C119.936 206.589 119.019 206.413 118.21 206.062C117.401 205.712 116.713 205.21 116.147 204.559C115.589 203.9 115.159 203.108 114.858 202.185C114.565 201.254 114.418 200.204 114.418 199.037V198.081C114.418 196.914 114.572 195.865 114.88 194.934C115.188 194.003 115.628 193.208 116.201 192.549C116.774 191.89 117.462 191.385 118.264 191.034C119.066 190.683 119.961 190.508 120.949 190.508C122.281 190.508 123.406 190.748 124.322 191.228C125.239 191.707 125.948 192.366 126.449 193.204C126.958 194.042 127.262 194.998 127.362 196.072H123.871C123.842 195.464 123.728 194.951 123.527 194.536C123.327 194.114 123.019 193.795 122.604 193.58C122.188 193.365 121.637 193.258 120.949 193.258C120.448 193.258 120.007 193.351 119.628 193.537C119.256 193.723 118.944 194.013 118.693 194.407C118.45 194.801 118.267 195.302 118.146 195.911C118.024 196.513 117.963 197.229 117.963 198.06V199.037C117.963 199.861 118.017 200.573 118.124 201.175C118.231 201.776 118.403 202.274 118.64 202.668C118.883 203.062 119.195 203.355 119.574 203.549C119.954 203.742 120.416 203.839 120.96 203.839C121.583 203.839 122.102 203.742 122.518 203.549C122.933 203.348 123.252 203.048 123.474 202.646C123.696 202.245 123.825 201.741 123.86 201.132ZM142.326 198.21V198.908C142.326 200.097 142.161 201.164 141.832 202.109C141.51 203.055 141.048 203.86 140.446 204.526C139.852 205.192 139.143 205.704 138.319 206.062C137.503 206.413 136.597 206.589 135.602 206.589C134.606 206.589 133.697 206.413 132.873 206.062C132.049 205.704 131.333 205.192 130.725 204.526C130.123 203.86 129.658 203.055 129.328 202.109C128.999 201.164 128.834 200.097 128.834 198.908V198.21C128.834 197.021 128.999 195.954 129.328 195.009C129.658 194.056 130.119 193.247 130.714 192.581C131.315 191.915 132.028 191.407 132.852 191.056C133.675 190.698 134.585 190.519 135.58 190.519C136.576 190.519 137.485 190.698 138.309 191.056C139.132 191.407 139.841 191.915 140.436 192.581C141.037 193.247 141.503 194.056 141.832 195.009C142.161 195.954 142.326 197.021 142.326 198.21ZM138.792 198.908V198.188C138.792 197.394 138.72 196.692 138.577 196.083C138.434 195.467 138.226 194.951 137.954 194.536C137.682 194.121 137.345 193.809 136.944 193.602C136.543 193.387 136.089 193.279 135.58 193.279C135.05 193.279 134.588 193.387 134.194 193.602C133.8 193.809 133.467 194.121 133.195 194.536C132.93 194.951 132.726 195.467 132.583 196.083C132.447 196.692 132.379 197.394 132.379 198.188V198.908C132.379 199.696 132.447 200.398 132.583 201.014C132.726 201.622 132.934 202.138 133.206 202.561C133.478 202.983 133.811 203.302 134.205 203.517C134.606 203.731 135.072 203.839 135.602 203.839C136.11 203.839 136.561 203.731 136.955 203.517C137.356 203.302 137.693 202.983 137.965 202.561C138.237 202.138 138.441 201.622 138.577 201.014C138.72 200.398 138.792 199.696 138.792 198.908ZM146.15 190.733H149.051L152.811 201.916L156.56 190.733H159.46L153.981 206.374H151.629L146.15 190.733ZM144.475 190.733H147.429L147.977 202.324V206.374H144.475V190.733ZM158.182 190.733H161.146V206.374H157.634V202.324L158.182 190.733ZM169.912 200.938H165.98V198.221H169.912C170.492 198.221 170.958 198.124 171.309 197.931C171.667 197.737 171.928 197.472 172.093 197.136C172.265 196.792 172.351 196.405 172.351 195.976C172.351 195.532 172.265 195.12 172.093 194.74C171.928 194.354 171.667 194.042 171.309 193.806C170.958 193.569 170.492 193.451 169.912 193.451H167.248V206.374H163.746V190.733H169.912C171.158 190.733 172.225 190.959 173.113 191.41C174.008 191.861 174.692 192.481 175.165 193.269C175.645 194.049 175.885 194.944 175.885 195.954C175.885 196.964 175.645 197.841 175.165 198.586C174.692 199.331 174.008 199.911 173.113 200.326C172.225 200.734 171.158 200.938 169.912 200.938ZM186.573 190.733H190.075V201.003C190.075 202.22 189.817 203.244 189.302 204.075C188.793 204.906 188.084 205.533 187.175 205.955C186.265 206.378 185.213 206.589 184.017 206.589C182.813 206.589 181.754 206.378 180.837 205.955C179.927 205.533 179.211 204.906 178.688 204.075C178.173 203.244 177.915 202.22 177.915 201.003V190.733H181.428V201.003C181.428 201.676 181.528 202.228 181.729 202.657C181.936 203.08 182.233 203.391 182.62 203.592C183.007 203.785 183.472 203.882 184.017 203.882C184.561 203.882 185.023 203.785 185.402 203.592C185.789 203.391 186.079 203.08 186.272 202.657C186.473 202.228 186.573 201.676 186.573 201.003V190.733ZM199.861 190.733V206.374H196.37V190.733H199.861ZM204.62 190.733V193.451H191.708V190.733H204.62ZM211.624 193.709L207.585 206.374H203.847L209.637 190.733H212L211.624 193.709ZM214.976 206.374L210.926 193.709L210.507 190.733H212.902L218.714 206.374H214.976ZM214.804 200.552V203.259H206.65V200.552H214.804ZM224.966 206.374H221.528L221.55 203.667H224.966C225.746 203.667 226.405 203.488 226.942 203.13C227.479 202.765 227.888 202.228 228.167 201.519C228.446 200.802 228.586 199.932 228.586 198.908V198.188C228.586 197.415 228.507 196.735 228.35 196.147C228.192 195.553 227.959 195.055 227.651 194.654C227.343 194.253 226.96 193.952 226.502 193.752C226.051 193.551 225.532 193.451 224.944 193.451H221.464V190.733H224.944C226.004 190.733 226.971 190.912 227.845 191.271C228.726 191.629 229.485 192.141 230.122 192.807C230.767 193.473 231.264 194.26 231.615 195.17C231.966 196.079 232.142 197.093 232.142 198.21V198.908C232.142 200.018 231.966 201.032 231.615 201.948C231.264 202.858 230.767 203.646 230.122 204.312C229.485 204.97 228.729 205.479 227.855 205.837C226.982 206.195 226.019 206.374 224.966 206.374ZM223.516 190.733V206.374H220.014V190.733H223.516ZM247.32 198.21V198.908C247.32 200.097 247.156 201.164 246.826 202.109C246.504 203.055 246.042 203.86 245.44 204.526C244.846 205.192 244.137 205.704 243.313 206.062C242.497 206.413 241.591 206.589 240.596 206.589C239.6 206.589 238.691 206.413 237.867 206.062C237.044 205.704 236.327 205.192 235.719 204.526C235.117 203.86 234.652 203.055 234.322 202.109C233.993 201.164 233.828 200.097 233.828 198.908V198.21C233.828 197.021 233.993 195.954 234.322 195.009C234.652 194.056 235.114 193.247 235.708 192.581C236.31 191.915 237.022 191.407 237.846 191.056C238.669 190.698 239.579 190.519 240.574 190.519C241.57 190.519 242.479 190.698 243.303 191.056C244.126 191.407 244.835 191.915 245.43 192.581C246.031 193.247 246.497 194.056 246.826 195.009C247.156 195.954 247.32 197.021 247.32 198.21ZM243.786 198.908V198.188C243.786 197.394 243.715 196.692 243.571 196.083C243.428 195.467 243.22 194.951 242.948 194.536C242.676 194.121 242.34 193.809 241.938 193.602C241.537 193.387 241.083 193.279 240.574 193.279C240.044 193.279 239.582 193.387 239.188 193.602C238.795 193.809 238.462 194.121 238.189 194.536C237.924 194.951 237.72 195.467 237.577 196.083C237.441 196.692 237.373 197.394 237.373 198.188V198.908C237.373 199.696 237.441 200.398 237.577 201.014C237.72 201.622 237.928 202.138 238.2 202.561C238.472 202.983 238.805 203.302 239.199 203.517C239.6 203.731 240.066 203.839 240.596 203.839C241.104 203.839 241.555 203.731 241.949 203.517C242.35 203.302 242.687 202.983 242.959 202.561C243.231 202.138 243.435 201.622 243.571 201.014C243.715 200.398 243.786 199.696 243.786 198.908ZM249.469 190.733H255.474C256.67 190.733 257.704 190.912 258.578 191.271C259.459 191.629 260.136 192.159 260.608 192.86C261.081 193.562 261.317 194.429 261.317 195.46C261.317 196.319 261.178 197.05 260.898 197.651C260.619 198.253 260.225 198.751 259.717 199.145C259.215 199.538 258.628 199.857 257.955 200.101L256.816 200.724H251.703L251.682 198.006H255.484C256.007 198.006 256.44 197.913 256.784 197.727C257.128 197.54 257.386 197.279 257.558 196.942C257.737 196.599 257.826 196.198 257.826 195.739C257.826 195.267 257.737 194.858 257.558 194.515C257.379 194.171 257.114 193.91 256.763 193.73C256.419 193.544 255.989 193.451 255.474 193.451H252.971V206.374H249.469V190.733ZM258.127 206.374L254.614 199.424L258.31 199.413L261.876 206.213V206.374H258.127ZM274.326 203.667V206.374H266.001V203.667H274.326ZM267.193 190.733V206.374H263.691V190.733H267.193ZM273.252 197.028V199.649H266.001V197.028H273.252ZM274.337 190.733V193.451H266.001V190.733H274.337ZM284.155 202.249C284.155 201.984 284.116 201.748 284.037 201.54C283.958 201.325 283.815 201.128 283.607 200.949C283.4 200.77 283.106 200.591 282.727 200.412C282.347 200.226 281.849 200.036 281.233 199.843C280.532 199.614 279.862 199.356 279.225 199.069C278.594 198.776 278.032 198.436 277.538 198.049C277.044 197.662 276.654 197.211 276.367 196.695C276.088 196.18 275.948 195.578 275.948 194.891C275.948 194.225 276.095 193.623 276.389 193.086C276.682 192.549 277.094 192.09 277.624 191.711C278.154 191.324 278.777 191.031 279.493 190.83C280.209 190.622 280.997 190.519 281.856 190.519C283.002 190.519 284.008 190.723 284.875 191.131C285.749 191.532 286.429 192.098 286.916 192.828C287.403 193.551 287.646 194.393 287.646 195.353H284.166C284.166 194.93 284.076 194.558 283.897 194.235C283.726 193.906 283.461 193.648 283.103 193.462C282.752 193.276 282.311 193.183 281.781 193.183C281.266 193.183 280.832 193.261 280.481 193.419C280.138 193.569 279.876 193.777 279.697 194.042C279.525 194.307 279.439 194.597 279.439 194.912C279.439 195.163 279.504 195.392 279.633 195.6C279.769 195.8 279.962 195.99 280.213 196.169C280.471 196.341 280.786 196.506 281.158 196.663C281.531 196.821 281.957 196.971 282.437 197.114C283.274 197.379 284.016 197.673 284.66 197.995C285.312 198.317 285.86 198.683 286.304 199.091C286.748 199.499 287.081 199.961 287.303 200.477C287.532 200.992 287.646 201.576 287.646 202.228C287.646 202.922 287.51 203.538 287.238 204.075C286.973 204.612 286.587 205.071 286.078 205.45C285.577 205.823 284.975 206.105 284.273 206.299C283.572 206.492 282.787 206.589 281.921 206.589C281.133 206.589 280.356 206.489 279.59 206.288C278.824 206.08 278.129 205.765 277.506 205.343C276.89 204.92 276.396 204.383 276.023 203.731C275.658 203.073 275.476 202.292 275.476 201.39H278.978C278.978 201.862 279.046 202.263 279.182 202.593C279.318 202.915 279.511 203.176 279.762 203.377C280.02 203.577 280.331 203.721 280.696 203.807C281.062 203.893 281.47 203.936 281.921 203.936C282.444 203.936 282.866 203.864 283.188 203.721C283.518 203.57 283.761 203.366 283.919 203.108C284.076 202.851 284.155 202.564 284.155 202.249Z" fill="#72849D"/>
<defs>
<filter id="filter0_d_752_177" x="18" y="22" width="373.34" height="365.33" filterUnits="userSpaceOnUse" color-interpolation-filters="sRGB">
<feFlood flood-opacity="0" result="BackgroundImageFix"/>
<feColorMatrix in="SourceAlpha" type="matrix" values="0 0 0 0 0 0 0 0 0 0 0 0 0 0 0 0 0 0 127 0" result="hardAlpha"/>
<feOffset dx="5" dy="5"/>
<feGaussianBlur stdDeviation="0.5"/>
<feComposite in2="hardAlpha" operator="out"/>
<feColorMatrix type="matrix" values="0 0 0 0 0 0 0 0 0 0 0 0 0 0 0 0 0 0 0.25 0"/>
<feBlend mode="normal" in2="BackgroundImageFix" result="effect1_dropShadow_752_177"/>
<feBlend mode="normal" in="SourceGraphic" in2="effect1_dropShadow_752_177" result="shape"/>
</filter>
<clipPath id="clip0_752_177">
<rect width="112" height="50.6947" fill="white" transform="translate(150.5 236.374)"/>
</clipPath>
</defs>
</svg>
